<svg width="400" height="400" viewBox="0 0 400 400" fill="none" xmlns="http://www.w3.org/2000/svg">
<rect width="400" height="400" fill="white"/>
<path d="M188.667 70C195.107 70 200.333 64.7733 200.333 58.3333V46.6666H188.667C182.227 46.6666 177 51.8933 177 58.3333C177 64.7733 182.227 70 188.667 70Z" fill="#0AC97F"/>
<path d="M177 35.0002C177 28.5602 182.227 23.3336 188.667 23.3336H200.333V46.6669H188.667C182.227 46.6669 177 41.4403 177 35.0002Z" fill="#9E57F8"/>
<path d="M177 11.6667C177 5.22668 182.227 0 188.667 0H200.333V23.3334H188.667C182.227 23.3334 177 18.1067 177 11.6667Z" fill="#EB4C1D"/>
<path d="M200.334 0H212C218.44 0 223.667 5.22668 223.667 11.6667C223.667 18.1067 218.44 23.3334 212 23.3334H200.334V0Z" fill="#F86F5F"/>
<path d="M223.667 35.0002C223.667 41.4403 218.44 46.6669 212 46.6669C205.56 46.6669 200.334 41.4403 200.334 35.0002C200.334 28.5602 205.56 23.3336 212 23.3336C218.44 23.3336 223.667 28.5602 223.667 35.0002Z" fill="#19B7F7"/>
<path d="M38.6173 63.0029L33 0H94.7231L89.0997 62.993L63.824 70L38.6173 63.0029Z" fill="#E44D26"/>
<path d="M63.8616 64.6443L84.2859 58.9817L89.0913 5.15131H63.8616L63.8616 64.6443Z" fill="#F16529"/>
<path fill-rule="evenodd" clip-rule="evenodd" d="M53.6366 28.5181H63.8616V36.2453H46.5696L44.6708 14.9513L44.4855 12.8785H63.8616V20.6051H52.9303L53.6366 28.5181ZM63.8274 48.5954L63.8617 48.5859V56.6258L63.8263 56.6353L47.9974 52.2415L46.9149 40.1092H54.6725L55.2221 46.2711L63.8274 48.5954Z" fill="#EBEBEB"/>
<path fill-rule="evenodd" clip-rule="evenodd" d="M63.8347 20.6051V12.8785H83.1916L83.007 14.9513L82.6543 18.8691L82.4994 20.6051H63.8347ZM63.8347 36.2453V28.5181H81.7959L81.6078 30.5932L79.7921 50.9361L79.6759 52.2415L63.8347 56.632V48.5926L72.4529 46.2666L73.3495 36.2453H63.8347Z" fill="#EEEEEE"/>
<path d="M310.617 63.0023L305 0H366.722L361.1 62.9924L335.824 70L310.617 63.0023H310.617Z" fill="#1572B6"/>
<path d="M335.862 64.644L356.286 58.9813L361.091 5.151H335.862V64.644H335.862Z" fill="#33A9DC"/>
<path d="M335.862 27.9766H346.086L346.793 20.0642H335.862V12.3372H355.237L355.052 14.4104L353.153 35.7036H335.862V27.9766H335.862Z" fill="#EEEEEE"/>
<path d="M335.907 48.0442L335.873 48.0542L327.268 45.7307L326.718 39.568H318.962L320.044 51.7007L335.872 56.0935L335.907 56.0834V48.0442Z" fill="#EBEBEB"/>
<path d="M345.429 35.3768L344.499 45.7246L335.881 48.0508V56.0901L351.721 51.7001L351.837 50.3945L353.182 35.3768H345.429Z" fill="#EEEEEE"/>
<path fill-rule="evenodd" clip-rule="evenodd" d="M335.888 20.0642V12.3372L316.532 12.3372L316.717 14.4104L317.069 18.3278L317.224 20.0642H335.888ZM335.862 35.7048V27.9778H326.673L326.857 30.051L327.21 33.9684L327.365 35.7048H335.862Z" fill="#EBEBEB"/>
<path d="M51.9326 95H50.3945V89.085H45.1475V95H43.6182V82.2031H45.1475V87.7051H50.3945V82.2031H51.9326V95ZM58.5684 83.1875V85.4902H62.1895V86.7471H58.5684V91.915C58.5684 92.2842 58.6152 92.5889 58.709 92.8291C58.8027 93.0693 58.9316 93.2627 59.0957 93.4092C59.2598 93.5498 59.4473 93.6494 59.6582 93.708C59.875 93.7666 60.1035 93.7959 60.3438 93.7959C60.5195 93.7959 60.7012 93.7871 60.8887 93.7695C61.0762 93.7461 61.2578 93.7197 61.4336 93.6904C61.6152 93.6611 61.7822 93.6318 61.9346 93.6025C62.0928 93.5674 62.2217 93.5381 62.3213 93.5146L62.5498 94.666C62.415 94.748 62.251 94.8213 62.0576 94.8857C61.8643 94.9443 61.6533 94.9941 61.4248 95.0352C61.1963 95.082 60.9531 95.1172 60.6953 95.1406C60.4434 95.1641 60.1914 95.1758 59.9395 95.1758C59.5176 95.1758 59.1221 95.1172 58.7529 95C58.3896 94.877 58.0732 94.6865 57.8037 94.4287C57.5342 94.165 57.3203 93.8281 57.1621 93.418C57.0098 93.002 56.9336 92.501 56.9336 91.915V86.7471H54.4375V85.4902H56.9336V83.1875H58.5684ZM66.2764 85.4902L66.3203 86.3867C66.5137 86.0527 66.7656 85.792 67.0762 85.6045C67.3926 85.417 67.7734 85.3203 68.2188 85.3145C69.0918 85.3145 69.6748 85.6543 69.9678 86.334C70.1553 86.0293 70.4014 85.7861 70.7061 85.6045C71.0166 85.417 71.3916 85.3203 71.8311 85.3145C72.5283 85.3145 73.0645 85.5283 73.4395 85.9561C73.8145 86.3838 74.002 87.0312 74.002 87.8984V95H72.4551V87.8809C72.4551 87.084 72.0889 86.6885 71.3564 86.6943C71.1631 86.6943 70.9961 86.7207 70.8555 86.7734C70.7148 86.8262 70.5977 86.8994 70.5039 86.9932C70.4102 87.0811 70.3369 87.1865 70.2842 87.3096C70.2314 87.4268 70.1963 87.5498 70.1787 87.6787V95H68.6318V87.8721C68.6318 87.4912 68.5469 87.1982 68.377 86.9932C68.207 86.7881 67.9375 86.6885 67.5684 86.6943C67.2285 86.6943 66.9648 86.7617 66.7773 86.8965C66.5898 87.0312 66.4521 87.21 66.3643 87.4326V95H64.8174V85.4902H66.2764ZM76.5947 81.5H81.4551V93.5938H84.5576V95H76.5947V93.5938H79.8291V82.915H76.5947V81.5Z" fill="#21413C"/>
<path d="M182.122 89.3486H176.796V95H175.152V82.2031H183.01V83.5918H176.796V87.9688H182.122V89.3486ZM186.068 85.4902H190.929V93.5938H194.031V95H186.068V93.5938H189.303V86.9053H186.068V85.4902ZM189.092 82.9941C189.092 82.7246 189.171 82.499 189.329 82.3174C189.493 82.1299 189.739 82.0361 190.067 82.0361C190.39 82.0361 190.633 82.1299 190.797 82.3174C190.961 82.499 191.043 82.7246 191.043 82.9941C191.043 83.2578 190.961 83.4775 190.797 83.6533C190.633 83.8291 190.39 83.917 190.067 83.917C189.739 83.917 189.493 83.8291 189.329 83.6533C189.171 83.4775 189.092 83.2578 189.092 82.9941ZM196.325 90.166C196.325 89.457 196.41 88.8066 196.58 88.2148C196.756 87.6172 197.008 87.1045 197.336 86.6768C197.664 86.249 198.062 85.915 198.531 85.6748C199 85.4346 199.53 85.3145 200.122 85.3145C200.708 85.3145 201.221 85.4199 201.66 85.6309C202.105 85.8359 202.483 86.1348 202.794 86.5273L202.873 85.4902H204.35V94.7979C204.35 95.4248 204.25 95.9814 204.051 96.4678C203.857 96.9541 203.582 97.3672 203.225 97.707C202.873 98.0469 202.451 98.3047 201.959 98.4805C201.467 98.6562 200.922 98.7441 200.324 98.7441C200.078 98.7441 199.797 98.7148 199.48 98.6562C199.164 98.6035 198.842 98.5127 198.514 98.3838C198.191 98.2607 197.878 98.0938 197.573 97.8828C197.274 97.6719 197.017 97.4111 196.8 97.1006L197.644 96.125C197.843 96.3652 198.048 96.5674 198.259 96.7314C198.47 96.9014 198.684 97.0361 198.9 97.1357C199.117 97.2354 199.334 97.3057 199.551 97.3467C199.768 97.3936 199.984 97.417 200.201 97.417C200.588 97.417 200.937 97.3613 201.247 97.25C201.558 97.1387 201.821 96.9746 202.038 96.7578C202.261 96.5469 202.431 96.2832 202.548 95.9668C202.665 95.6504 202.724 95.2871 202.724 94.877V94.0596C202.407 94.4229 202.032 94.7012 201.599 94.8945C201.171 95.082 200.673 95.1758 200.104 95.1758C199.524 95.1758 199 95.0527 198.531 94.8066C198.062 94.5605 197.664 94.2207 197.336 93.7871C197.014 93.3535 196.765 92.8438 196.589 92.2578C196.413 91.666 196.325 91.0303 196.325 90.3506V90.166ZM197.951 90.3506C197.951 90.8135 197.998 91.2529 198.092 91.6689C198.191 92.085 198.344 92.4512 198.549 92.7676C198.76 93.084 199.026 93.3359 199.349 93.5234C199.671 93.7051 200.058 93.7959 200.509 93.7959C200.79 93.7959 201.042 93.7637 201.265 93.6992C201.493 93.6289 201.695 93.5322 201.871 93.4092C202.053 93.2861 202.214 93.1396 202.354 92.9697C202.495 92.7998 202.618 92.6123 202.724 92.4072V88.0479C202.618 87.8486 202.495 87.667 202.354 87.5029C202.214 87.3389 202.053 87.1982 201.871 87.0811C201.689 86.958 201.487 86.8643 201.265 86.7998C201.042 86.7295 200.796 86.6943 200.526 86.6943C200.069 86.6943 199.677 86.7881 199.349 86.9756C199.026 87.1631 198.76 87.418 198.549 87.7402C198.344 88.0566 198.191 88.4258 198.092 88.8477C197.998 89.2637 197.951 89.7031 197.951 90.166V90.3506ZM208.182 85.4902L208.226 86.3867C208.419 86.0527 208.671 85.792 208.981 85.6045C209.298 85.417 209.679 85.3203 210.124 85.3145C210.997 85.3145 211.58 85.6543 211.873 86.334C212.061 86.0293 212.307 85.7861 212.611 85.6045C212.922 85.417 213.297 85.3203 213.736 85.3145C214.434 85.3145 214.97 85.5283 215.345 85.9561C215.72 86.3838 215.907 87.0312 215.907 87.8984V95H214.36V87.8809C214.36 87.084 213.994 86.6885 213.262 86.6943C213.068 86.6943 212.901 86.7207 212.761 86.7734C212.62 86.8262 212.503 86.8994 212.409 86.9932C212.315 87.0811 212.242 87.1865 212.189 87.3096C212.137 87.4268 212.102 87.5498 212.084 87.6787V95H210.537V87.8721C210.537 87.4912 210.452 87.1982 210.282 86.9932C210.112 86.7881 209.843 86.6885 209.474 86.6943C209.134 86.6943 208.87 86.7617 208.683 86.8965C208.495 87.0312 208.357 87.21 208.27 87.4326V95H206.723V85.4902H208.182ZM224.494 95C224.43 94.877 224.377 94.7246 224.336 94.543C224.301 94.3555 224.274 94.1621 224.257 93.9629C224.093 94.127 223.908 94.2822 223.703 94.4287C223.504 94.5752 223.281 94.7041 223.035 94.8154C222.795 94.9268 222.537 95.0146 222.262 95.0791C221.986 95.1436 221.693 95.1758 221.383 95.1758C220.879 95.1758 220.422 95.1025 220.012 94.9561C219.607 94.8096 219.262 94.6133 218.975 94.3672C218.693 94.1152 218.474 93.8193 218.315 93.4795C218.163 93.1338 218.087 92.7617 218.087 92.3633C218.087 91.8418 218.189 91.3848 218.395 90.9922C218.605 90.5996 218.901 90.2744 219.282 90.0166C219.663 89.7529 220.12 89.5566 220.653 89.4277C221.192 89.2988 221.793 89.2344 222.455 89.2344H224.23V88.4873C224.23 88.2002 224.178 87.9424 224.072 87.7139C223.967 87.4854 223.817 87.292 223.624 87.1338C223.431 86.9697 223.193 86.8438 222.912 86.7559C222.637 86.668 222.326 86.624 221.98 86.624C221.658 86.624 221.368 86.665 221.11 86.7471C220.858 86.8291 220.645 86.9375 220.469 87.0723C220.293 87.207 220.155 87.3682 220.056 87.5557C219.962 87.7373 219.915 87.9277 219.915 88.127H218.28C218.286 87.7812 218.374 87.4414 218.544 87.1074C218.72 86.7734 218.969 86.4746 219.291 86.2109C219.619 85.9414 220.015 85.7246 220.478 85.5605C220.946 85.3965 221.477 85.3145 222.068 85.3145C222.607 85.3145 223.108 85.3818 223.571 85.5166C224.034 85.6455 224.433 85.8447 224.767 86.1143C225.106 86.3779 225.373 86.709 225.566 87.1074C225.76 87.5059 225.856 87.9717 225.856 88.5049V92.9258C225.856 93.2422 225.886 93.5791 225.944 93.9365C226.003 94.2881 226.085 94.5957 226.19 94.8594V95H224.494ZM221.62 93.7607C221.937 93.7607 222.232 93.7197 222.508 93.6377C222.783 93.5557 223.032 93.4473 223.255 93.3125C223.483 93.1777 223.68 93.0254 223.844 92.8555C224.008 92.6797 224.137 92.498 224.23 92.3105V90.3857H222.719C221.77 90.3857 221.031 90.5264 220.504 90.8076C219.977 91.0889 219.713 91.5312 219.713 92.1348C219.713 92.3691 219.751 92.5859 219.827 92.7852C219.909 92.9844 220.029 93.1572 220.188 93.3037C220.346 93.4443 220.545 93.5557 220.785 93.6377C221.025 93.7197 221.304 93.7607 221.62 93.7607Z" fill="#21413C"/>
<path d="M330.102 91.1504C330.025 91.7422 329.873 92.2871 329.645 92.7852C329.416 93.2773 329.117 93.7021 328.748 94.0596C328.385 94.4111 327.951 94.6865 327.447 94.8857C326.949 95.0791 326.393 95.1758 325.777 95.1758C325.25 95.1758 324.77 95.1025 324.336 94.9561C323.908 94.8037 323.524 94.5957 323.185 94.332C322.851 94.0684 322.561 93.7578 322.314 93.4004C322.074 93.043 321.872 92.6533 321.708 92.2314C321.55 91.8096 321.43 91.3672 321.348 90.9043C321.271 90.4414 321.23 89.9727 321.225 89.498V87.7139C321.23 87.2393 321.271 86.7705 321.348 86.3076C321.43 85.8447 321.55 85.4023 321.708 84.9805C321.872 84.5586 322.074 84.1689 322.314 83.8115C322.561 83.4482 322.851 83.1348 323.185 82.8711C323.524 82.6074 323.908 82.4023 324.336 82.2559C324.764 82.1035 325.244 82.0273 325.777 82.0273C326.416 82.0273 326.987 82.127 327.491 82.3262C327.995 82.5195 328.429 82.7979 328.792 83.1611C329.155 83.5186 329.445 83.9492 329.662 84.4531C329.885 84.957 330.031 85.5137 330.102 86.123H328.476C328.423 85.7363 328.332 85.376 328.203 85.042C328.074 84.708 327.901 84.415 327.685 84.1631C327.468 83.9111 327.201 83.7148 326.885 83.5742C326.574 83.4277 326.205 83.3545 325.777 83.3545C325.391 83.3545 325.048 83.4189 324.749 83.5479C324.456 83.6709 324.201 83.8408 323.984 84.0576C323.773 84.2744 323.595 84.5264 323.448 84.8135C323.308 85.1006 323.193 85.4053 323.105 85.7275C323.018 86.0498 322.953 86.3809 322.912 86.7207C322.877 87.0547 322.859 87.3799 322.859 87.6963V89.498C322.859 89.8145 322.877 90.1426 322.912 90.4824C322.953 90.8164 323.018 91.1475 323.105 91.4756C323.193 91.7979 323.308 92.1025 323.448 92.3896C323.589 92.6768 323.768 92.9316 323.984 93.1543C324.201 93.3711 324.456 93.5439 324.749 93.6729C325.042 93.7959 325.385 93.8574 325.777 93.8574C326.205 93.8574 326.574 93.79 326.885 93.6553C327.201 93.5205 327.468 93.333 327.685 93.0928C327.901 92.8467 328.074 92.5596 328.203 92.2314C328.332 91.8975 328.423 91.5371 328.476 91.1504H330.102ZM338.943 92.4775C338.943 92.2842 338.905 92.1113 338.829 91.959C338.753 91.8008 338.624 91.6572 338.442 91.5283C338.261 91.3994 338.021 91.2822 337.722 91.1768C337.423 91.0654 337.051 90.9658 336.605 90.8779C336.061 90.7666 335.562 90.6318 335.111 90.4736C334.666 90.3154 334.282 90.1279 333.96 89.9111C333.644 89.6885 333.397 89.4307 333.222 89.1377C333.046 88.8389 332.958 88.4932 332.958 88.1006C332.958 87.7139 333.049 87.3535 333.23 87.0195C333.412 86.6797 333.667 86.3838 333.995 86.1318C334.323 85.8799 334.713 85.6807 335.164 85.5342C335.621 85.3877 336.122 85.3145 336.667 85.3145C337.253 85.3145 337.78 85.3906 338.249 85.543C338.718 85.6953 339.116 85.9062 339.444 86.1758C339.772 86.4453 340.024 86.7617 340.2 87.125C340.382 87.4824 340.473 87.8691 340.473 88.2852H338.847C338.847 88.0801 338.794 87.8809 338.688 87.6875C338.583 87.4883 338.437 87.3125 338.249 87.1602C338.062 87.0078 337.833 86.8848 337.563 86.791C337.3 86.6973 337.001 86.6504 336.667 86.6504C336.321 86.6504 336.017 86.6885 335.753 86.7646C335.495 86.8408 335.278 86.9434 335.103 87.0723C334.933 87.2012 334.804 87.3506 334.716 87.5205C334.628 87.6904 334.584 87.8662 334.584 88.0479C334.584 88.2354 334.619 88.4023 334.689 88.5488C334.76 88.6953 334.88 88.8271 335.05 88.9443C335.226 89.0615 335.457 89.167 335.744 89.2607C336.037 89.3545 336.406 89.4453 336.852 89.5332C337.438 89.6562 337.962 89.7998 338.425 89.9639C338.888 90.1221 339.277 90.3154 339.594 90.5439C339.91 90.7666 340.15 91.0273 340.314 91.3262C340.484 91.625 340.569 91.9707 340.569 92.3633C340.569 92.7852 340.473 93.1689 340.279 93.5146C340.092 93.8604 339.828 94.1562 339.488 94.4023C339.148 94.6484 338.741 94.8389 338.267 94.9736C337.792 95.1084 337.273 95.1758 336.711 95.1758C336.066 95.1758 335.492 95.0908 334.988 94.9209C334.484 94.7451 334.057 94.5166 333.705 94.2354C333.359 93.9482 333.093 93.6172 332.905 93.2422C332.724 92.8672 332.633 92.4775 332.633 92.0732H334.259C334.282 92.4072 334.37 92.6885 334.522 92.917C334.681 93.1455 334.874 93.3301 335.103 93.4707C335.337 93.6113 335.595 93.7109 335.876 93.7695C336.157 93.8281 336.436 93.8574 336.711 93.8574C337.396 93.8574 337.938 93.7314 338.337 93.4795C338.735 93.2275 338.938 92.8936 338.943 92.4775ZM349.754 92.4775C349.754 92.2842 349.716 92.1113 349.64 91.959C349.563 91.8008 349.435 91.6572 349.253 91.5283C349.071 91.3994 348.831 91.2822 348.532 91.1768C348.233 91.0654 347.861 90.9658 347.416 90.8779C346.871 90.7666 346.373 90.6318 345.922 90.4736C345.477 90.3154 345.093 90.1279 344.771 89.9111C344.454 89.6885 344.208 89.4307 344.032 89.1377C343.856 88.8389 343.769 88.4932 343.769 88.1006C343.769 87.7139 343.859 87.3535 344.041 87.0195C344.223 86.6797 344.478 86.3838 344.806 86.1318C345.134 85.8799 345.523 85.6807 345.975 85.5342C346.432 85.3877 346.933 85.3145 347.478 85.3145C348.063 85.3145 348.591 85.3906 349.06 85.543C349.528 85.6953 349.927 85.9062 350.255 86.1758C350.583 86.4453 350.835 86.7617 351.011 87.125C351.192 87.4824 351.283 87.8691 351.283 88.2852H349.657C349.657 88.0801 349.604 87.8809 349.499 87.6875C349.394 87.4883 349.247 87.3125 349.06 87.1602C348.872 87.0078 348.644 86.8848 348.374 86.791C348.11 86.6973 347.812 86.6504 347.478 86.6504C347.132 86.6504 346.827 86.6885 346.563 86.7646C346.306 86.8408 346.089 86.9434 345.913 87.0723C345.743 87.2012 345.614 87.3506 345.526 87.5205C345.438 87.6904 345.395 87.8662 345.395 88.0479C345.395 88.2354 345.43 88.4023 345.5 88.5488C345.57 88.6953 345.69 88.8271 345.86 88.9443C346.036 89.0615 346.268 89.167 346.555 89.2607C346.848 89.3545 347.217 89.4453 347.662 89.5332C348.248 89.6562 348.772 89.7998 349.235 89.9639C349.698 90.1221 350.088 90.3154 350.404 90.5439C350.721 90.7666 350.961 91.0273 351.125 91.3262C351.295 91.625 351.38 91.9707 351.38 92.3633C351.38 92.7852 351.283 93.1689 351.09 93.5146C350.902 93.8604 350.639 94.1562 350.299 94.4023C349.959 94.6484 349.552 94.8389 349.077 94.9736C348.603 95.1084 348.084 95.1758 347.521 95.1758C346.877 95.1758 346.303 95.0908 345.799 94.9209C345.295 94.7451 344.867 94.5166 344.516 94.2354C344.17 93.9482 343.903 93.6172 343.716 93.2422C343.534 92.8672 343.443 92.4775 343.443 92.0732H345.069C345.093 92.4072 345.181 92.6885 345.333 92.917C345.491 93.1455 345.685 93.3301 345.913 93.4707C346.147 93.6113 346.405 93.7109 346.687 93.7695C346.968 93.8281 347.246 93.8574 347.521 93.8574C348.207 93.8574 348.749 93.7314 349.147 93.4795C349.546 93.2275 349.748 92.8936 349.754 92.4775Z" fill="#21413C"/>
<path d="M33.9437 301C33.9437 312.922 40.7906 323.192 50.7875 328.011L36.6081 288.827C34.9609 292.631 33.9437 296.691 33.9437 301ZM84.2891 299.478C84.2891 295.802 82.8934 293.134 81.7516 291.235C80.2291 288.698 78.8356 286.67 78.8356 284.134C78.8356 281.345 80.9925 278.808 83.9106 278.808H84.2912C78.9625 273.862 71.8619 270.944 64 270.944C59.0259 270.988 54.138 272.247 49.7619 274.612C45.3857 276.977 41.6541 280.376 38.8919 284.513H40.795C43.9669 284.513 48.7837 284.132 48.7837 284.132C50.4331 284.005 50.56 286.414 49.0375 286.67C49.0375 286.67 47.3881 286.923 45.6141 286.923L56.5209 319.386L63.1141 299.729L58.4219 286.921L55.25 286.672C53.6006 286.545 53.8544 284.134 55.3769 284.134C55.3769 284.134 60.3206 284.515 63.2388 284.515C66.4106 284.515 71.2275 284.134 71.2275 284.134C72.8769 284.007 73.0037 286.416 71.4813 286.672C71.4813 286.672 69.8319 286.926 68.0578 286.926L78.9625 319.266L82.025 309.247C83.2938 305.062 84.3066 302.146 84.3066 299.482L84.2891 299.478ZM64.5075 303.662L55.5037 329.787C58.1659 330.549 61.0819 331.056 64 331.056C67.5503 331.056 70.8469 330.4 74.0187 329.407C73.8919 329.28 73.8919 329.153 73.765 329.026L64.5075 303.662ZM90.3769 286.672L90.6306 289.734C90.6306 292.797 90.1231 296.203 88.3491 300.514L79.2184 327.018C88.0953 321.818 94.1809 312.18 94.1809 301.022C94.0541 295.822 92.6584 291.003 90.3747 286.694L90.3769 286.672ZM64 266C44.7237 266 29 281.724 29 301C29 320.276 44.7237 336 64 336C83.2762 336 99 320.276 99 301C99 281.724 83.2762 266 64 266ZM64 334.478C45.6119 334.478 30.6494 319.515 30.6494 301C30.6633 292.159 34.1814 283.684 40.4329 277.433C46.6843 271.181 55.1591 267.663 64 267.649C72.8409 267.663 81.3157 271.181 87.5671 277.433C93.8186 283.684 97.3367 292.159 97.3506 301C97.3506 319.515 82.3881 334.478 64 334.478Z" fill="#00749A"/>
<path d="M16.8643 231V218.203H20.6699C21.1973 218.209 21.7129 218.279 22.2168 218.414C22.7207 218.543 23.1689 218.745 23.5615 219.021C23.9541 219.296 24.2676 219.647 24.502 220.075C24.7363 220.503 24.8506 221.016 24.8447 221.613C24.8389 221.947 24.7832 222.252 24.6777 222.527C24.5781 222.803 24.4375 223.052 24.2559 223.274C24.0801 223.491 23.8721 223.682 23.6318 223.846C23.3916 224.01 23.1367 224.15 22.8672 224.268C23.207 224.367 23.5176 224.511 23.7988 224.698C24.0859 224.88 24.332 225.103 24.5371 225.366C24.7422 225.624 24.9004 225.917 25.0117 226.245C25.1289 226.573 25.1875 226.928 25.1875 227.309C25.1934 227.906 25.0791 228.434 24.8447 228.891C24.6104 229.348 24.2969 229.731 23.9043 230.042C23.5117 230.347 23.0576 230.581 22.542 230.745C22.0322 230.909 21.5049 230.994 20.96 231H16.8643ZM18.499 225.015V229.62H21.0039C21.3438 229.614 21.666 229.559 21.9707 229.453C22.2754 229.342 22.5449 229.189 22.7793 228.996C23.0137 228.803 23.1982 228.565 23.333 228.284C23.4736 228.003 23.5439 227.684 23.5439 227.326C23.5498 226.963 23.4883 226.641 23.3594 226.359C23.2363 226.078 23.0635 225.841 22.8408 225.647C22.6182 225.448 22.3574 225.296 22.0586 225.19C21.7598 225.085 21.4375 225.026 21.0918 225.015H18.499ZM18.499 223.661H20.7666C21.0713 223.655 21.3701 223.608 21.6631 223.521C21.9561 223.427 22.2168 223.295 22.4453 223.125C22.6738 222.949 22.8584 222.735 22.999 222.483C23.1396 222.231 23.21 221.938 23.21 221.604C23.21 221.247 23.1396 220.942 22.999 220.69C22.8643 220.438 22.6797 220.233 22.4453 220.075C22.2168 219.911 21.9502 219.791 21.6455 219.715C21.3467 219.639 21.0391 219.598 20.7227 219.592H18.499V223.661ZM27.2354 226.157C27.2354 225.472 27.335 224.836 27.5342 224.25C27.7334 223.658 28.0176 223.146 28.3867 222.712C28.7617 222.278 29.2158 221.938 29.749 221.692C30.2822 221.44 30.8828 221.314 31.5508 221.314C32.2246 221.314 32.8281 221.44 33.3613 221.692C33.9004 221.938 34.3545 222.278 34.7236 222.712C35.0986 223.146 35.3857 223.658 35.585 224.25C35.7842 224.836 35.8838 225.472 35.8838 226.157V226.351C35.8838 227.036 35.7842 227.672 35.585 228.258C35.3857 228.844 35.0986 229.354 34.7236 229.787C34.3545 230.221 33.9033 230.561 33.3701 230.807C32.8369 231.053 32.2363 231.176 31.5684 231.176C30.8945 231.176 30.2881 231.053 29.749 230.807C29.2158 230.561 28.7617 230.221 28.3867 229.787C28.0176 229.354 27.7334 228.844 27.5342 228.258C27.335 227.672 27.2354 227.036 27.2354 226.351V226.157ZM28.8613 226.351C28.8613 226.819 28.917 227.268 29.0283 227.695C29.1396 228.117 29.3066 228.489 29.5293 228.812C29.7578 229.134 30.042 229.389 30.3818 229.576C30.7217 229.764 31.1172 229.857 31.5684 229.857C32.0137 229.857 32.4033 229.764 32.7373 229.576C33.0771 229.389 33.3584 229.134 33.5811 228.812C33.8096 228.489 33.9795 228.117 34.0908 227.695C34.2021 227.268 34.2578 226.819 34.2578 226.351V226.157C34.2578 225.694 34.1992 225.252 34.082 224.83C33.9707 224.402 33.8008 224.027 33.5723 223.705C33.3496 223.383 33.0684 223.128 32.7285 222.94C32.3945 222.747 32.002 222.65 31.5508 222.65C31.0996 222.65 30.707 222.747 30.373 222.94C30.0391 223.128 29.7578 223.383 29.5293 223.705C29.3066 224.027 29.1396 224.402 29.0283 224.83C28.917 225.252 28.8613 225.694 28.8613 226.157V226.351ZM38.0459 226.157C38.0459 225.472 38.1455 224.836 38.3447 224.25C38.5439 223.658 38.8281 223.146 39.1973 222.712C39.5723 222.278 40.0264 221.938 40.5596 221.692C41.0928 221.44 41.6934 221.314 42.3613 221.314C43.0352 221.314 43.6387 221.44 44.1719 221.692C44.7109 221.938 45.165 222.278 45.5342 222.712C45.9092 223.146 46.1963 223.658 46.3955 224.25C46.5947 224.836 46.6943 225.472 46.6943 226.157V226.351C46.6943 227.036 46.5947 227.672 46.3955 228.258C46.1963 228.844 45.9092 229.354 45.5342 229.787C45.165 230.221 44.7139 230.561 44.1807 230.807C43.6475 231.053 43.0469 231.176 42.3789 231.176C41.7051 231.176 41.0986 231.053 40.5596 230.807C40.0264 230.561 39.5723 230.221 39.1973 229.787C38.8281 229.354 38.5439 228.844 38.3447 228.258C38.1455 227.672 38.0459 227.036 38.0459 226.351V226.157ZM39.6719 226.351C39.6719 226.819 39.7275 227.268 39.8389 227.695C39.9502 228.117 40.1172 228.489 40.3398 228.812C40.5684 229.134 40.8525 229.389 41.1924 229.576C41.5322 229.764 41.9277 229.857 42.3789 229.857C42.8242 229.857 43.2139 229.764 43.5479 229.576C43.8877 229.389 44.1689 229.134 44.3916 228.812C44.6201 228.489 44.79 228.117 44.9014 227.695C45.0127 227.268 45.0684 226.819 45.0684 226.351V226.157C45.0684 225.694 45.0098 225.252 44.8926 224.83C44.7812 224.402 44.6113 224.027 44.3828 223.705C44.1602 223.383 43.8789 223.128 43.5391 222.94C43.2051 222.747 42.8125 222.65 42.3613 222.65C41.9102 222.65 41.5176 222.747 41.1836 222.94C40.8496 223.128 40.5684 223.383 40.3398 223.705C40.1172 224.027 39.9502 224.402 39.8389 224.83C39.7275 225.252 39.6719 225.694 39.6719 226.157V226.351ZM53.1631 219.188V221.49H56.7842V222.747H53.1631V227.915C53.1631 228.284 53.21 228.589 53.3037 228.829C53.3975 229.069 53.5264 229.263 53.6904 229.409C53.8545 229.55 54.042 229.649 54.2529 229.708C54.4697 229.767 54.6982 229.796 54.9385 229.796C55.1143 229.796 55.2959 229.787 55.4834 229.77C55.6709 229.746 55.8525 229.72 56.0283 229.69C56.21 229.661 56.377 229.632 56.5293 229.603C56.6875 229.567 56.8164 229.538 56.916 229.515L57.1445 230.666C57.0098 230.748 56.8457 230.821 56.6523 230.886C56.459 230.944 56.248 230.994 56.0195 231.035C55.791 231.082 55.5479 231.117 55.29 231.141C55.0381 231.164 54.7861 231.176 54.5342 231.176C54.1123 231.176 53.7168 231.117 53.3477 231C52.9844 230.877 52.668 230.687 52.3984 230.429C52.1289 230.165 51.915 229.828 51.7568 229.418C51.6045 229.002 51.5283 228.501 51.5283 227.915V222.747H49.0322V221.49H51.5283V219.188H53.1631ZM66.4434 228.478C66.4434 228.284 66.4053 228.111 66.3291 227.959C66.2529 227.801 66.124 227.657 65.9424 227.528C65.7607 227.399 65.5205 227.282 65.2217 227.177C64.9229 227.065 64.5508 226.966 64.1055 226.878C63.5605 226.767 63.0625 226.632 62.6113 226.474C62.166 226.315 61.7822 226.128 61.46 225.911C61.1436 225.688 60.8975 225.431 60.7217 225.138C60.5459 224.839 60.458 224.493 60.458 224.101C60.458 223.714 60.5488 223.354 60.7305 223.02C60.9121 222.68 61.167 222.384 61.4951 222.132C61.8232 221.88 62.2129 221.681 62.6641 221.534C63.1211 221.388 63.6221 221.314 64.167 221.314C64.7529 221.314 65.2803 221.391 65.749 221.543C66.2178 221.695 66.6162 221.906 66.9443 222.176C67.2725 222.445 67.5244 222.762 67.7002 223.125C67.8818 223.482 67.9727 223.869 67.9727 224.285H66.3467C66.3467 224.08 66.2939 223.881 66.1885 223.688C66.083 223.488 65.9365 223.312 65.749 223.16C65.5615 223.008 65.333 222.885 65.0635 222.791C64.7998 222.697 64.501 222.65 64.167 222.65C63.8213 222.65 63.5166 222.688 63.2529 222.765C62.9951 222.841 62.7783 222.943 62.6025 223.072C62.4326 223.201 62.3037 223.351 62.2158 223.521C62.1279 223.69 62.084 223.866 62.084 224.048C62.084 224.235 62.1191 224.402 62.1895 224.549C62.2598 224.695 62.3799 224.827 62.5498 224.944C62.7256 225.062 62.957 225.167 63.2441 225.261C63.5371 225.354 63.9062 225.445 64.3516 225.533C64.9375 225.656 65.4619 225.8 65.9248 225.964C66.3877 226.122 66.7773 226.315 67.0938 226.544C67.4102 226.767 67.6504 227.027 67.8145 227.326C67.9844 227.625 68.0693 227.971 68.0693 228.363C68.0693 228.785 67.9727 229.169 67.7793 229.515C67.5918 229.86 67.3281 230.156 66.9883 230.402C66.6484 230.648 66.2412 230.839 65.7666 230.974C65.292 231.108 64.7734 231.176 64.2109 231.176C63.5664 231.176 62.9922 231.091 62.4883 230.921C61.9844 230.745 61.5566 230.517 61.2051 230.235C60.8594 229.948 60.5928 229.617 60.4053 229.242C60.2236 228.867 60.1328 228.478 60.1328 228.073H61.7588C61.7822 228.407 61.8701 228.688 62.0225 228.917C62.1807 229.146 62.374 229.33 62.6025 229.471C62.8369 229.611 63.0947 229.711 63.376 229.77C63.6572 229.828 63.9355 229.857 64.2109 229.857C64.8965 229.857 65.4385 229.731 65.8369 229.479C66.2354 229.228 66.4375 228.894 66.4434 228.478ZM74.7842 219.188V221.49H78.4053V222.747H74.7842V227.915C74.7842 228.284 74.8311 228.589 74.9248 228.829C75.0186 229.069 75.1475 229.263 75.3115 229.409C75.4756 229.55 75.6631 229.649 75.874 229.708C76.0908 229.767 76.3193 229.796 76.5596 229.796C76.7354 229.796 76.917 229.787 77.1045 229.77C77.292 229.746 77.4736 229.72 77.6494 229.69C77.8311 229.661 77.998 229.632 78.1504 229.603C78.3086 229.567 78.4375 229.538 78.5371 229.515L78.7656 230.666C78.6309 230.748 78.4668 230.821 78.2734 230.886C78.0801 230.944 77.8691 230.994 77.6406 231.035C77.4121 231.082 77.1689 231.117 76.9111 231.141C76.6592 231.164 76.4072 231.176 76.1553 231.176C75.7334 231.176 75.3379 231.117 74.9688 231C74.6055 230.877 74.2891 230.687 74.0195 230.429C73.75 230.165 73.5361 229.828 73.3779 229.418C73.2256 229.002 73.1494 228.501 73.1494 227.915V222.747H70.6533V221.49H73.1494V219.188H74.7842ZM87.9766 221.314C88.1289 221.314 88.2871 221.32 88.4512 221.332C88.6152 221.338 88.7705 221.353 88.917 221.376C89.0693 221.394 89.207 221.417 89.3301 221.446C89.459 221.476 89.5645 221.508 89.6465 221.543L89.4268 223.134C89.1104 223.063 88.8086 223.014 88.5215 222.984C88.2402 222.949 87.9443 222.932 87.6338 222.932C86.8721 222.932 86.2539 223.104 85.7793 223.45C85.3105 223.796 84.9648 224.279 84.7422 224.9V231H83.1074V221.49H84.6543L84.7334 223.002C85.1201 222.48 85.583 222.07 86.1221 221.771C86.667 221.467 87.2852 221.314 87.9766 221.314ZM98.8047 231C98.7402 230.877 98.6875 230.725 98.6465 230.543C98.6113 230.355 98.585 230.162 98.5674 229.963C98.4033 230.127 98.2188 230.282 98.0137 230.429C97.8145 230.575 97.5918 230.704 97.3457 230.815C97.1055 230.927 96.8477 231.015 96.5723 231.079C96.2969 231.144 96.0039 231.176 95.6934 231.176C95.1895 231.176 94.7324 231.103 94.3223 230.956C93.918 230.81 93.5723 230.613 93.2852 230.367C93.0039 230.115 92.7842 229.819 92.626 229.479C92.4736 229.134 92.3975 228.762 92.3975 228.363C92.3975 227.842 92.5 227.385 92.7051 226.992C92.916 226.6 93.2119 226.274 93.5928 226.017C93.9736 225.753 94.4307 225.557 94.9639 225.428C95.5029 225.299 96.1035 225.234 96.7656 225.234H98.541V224.487C98.541 224.2 98.4883 223.942 98.3828 223.714C98.2773 223.485 98.1279 223.292 97.9346 223.134C97.7412 222.97 97.5039 222.844 97.2227 222.756C96.9473 222.668 96.6367 222.624 96.291 222.624C95.9688 222.624 95.6787 222.665 95.4209 222.747C95.1689 222.829 94.9551 222.938 94.7793 223.072C94.6035 223.207 94.4658 223.368 94.3662 223.556C94.2725 223.737 94.2256 223.928 94.2256 224.127H92.5908C92.5967 223.781 92.6846 223.441 92.8545 223.107C93.0303 222.773 93.2793 222.475 93.6016 222.211C93.9297 221.941 94.3252 221.725 94.7881 221.561C95.2568 221.396 95.7871 221.314 96.3789 221.314C96.918 221.314 97.4189 221.382 97.8818 221.517C98.3447 221.646 98.7432 221.845 99.0771 222.114C99.417 222.378 99.6836 222.709 99.877 223.107C100.07 223.506 100.167 223.972 100.167 224.505V228.926C100.167 229.242 100.196 229.579 100.255 229.937C100.313 230.288 100.396 230.596 100.501 230.859V231H98.8047ZM95.9307 229.761C96.2471 229.761 96.543 229.72 96.8184 229.638C97.0938 229.556 97.3428 229.447 97.5654 229.312C97.7939 229.178 97.9902 229.025 98.1543 228.855C98.3184 228.68 98.4473 228.498 98.541 228.311V226.386H97.0293C96.0801 226.386 95.3418 226.526 94.8145 226.808C94.2871 227.089 94.0234 227.531 94.0234 228.135C94.0234 228.369 94.0615 228.586 94.1377 228.785C94.2197 228.984 94.3398 229.157 94.498 229.304C94.6562 229.444 94.8555 229.556 95.0957 229.638C95.3359 229.72 95.6143 229.761 95.9307 229.761ZM111.391 226.351C111.391 227.03 111.309 227.666 111.145 228.258C110.98 228.844 110.74 229.354 110.424 229.787C110.107 230.221 109.715 230.561 109.246 230.807C108.783 231.053 108.253 231.176 107.655 231.176C107.075 231.176 106.562 231.082 106.117 230.895C105.678 230.707 105.3 230.438 104.983 230.086V234.656H103.357V221.49H104.843L104.922 222.527C105.238 222.135 105.619 221.836 106.064 221.631C106.516 221.42 107.037 221.314 107.629 221.314C108.238 221.314 108.777 221.435 109.246 221.675C109.715 221.915 110.107 222.249 110.424 222.677C110.74 223.104 110.98 223.617 111.145 224.215C111.309 224.807 111.391 225.457 111.391 226.166V226.351ZM109.765 226.166C109.765 225.703 109.712 225.264 109.606 224.848C109.507 224.426 109.349 224.057 109.132 223.74C108.921 223.418 108.651 223.163 108.323 222.976C107.995 222.788 107.603 222.694 107.146 222.694C106.624 222.694 106.185 222.817 105.827 223.063C105.476 223.304 105.194 223.614 104.983 223.995V228.574C105.194 228.949 105.476 229.257 105.827 229.497C106.179 229.731 106.624 229.849 107.163 229.849C107.614 229.849 108.004 229.755 108.332 229.567C108.66 229.374 108.93 229.116 109.141 228.794C109.352 228.472 109.507 228.1 109.606 227.678C109.712 227.256 109.765 226.813 109.765 226.351V226.166Z" fill="#21413C"/>
<path d="M23.2275 357.537L24.2031 348.203H25.7412L24.1855 361H22.5244L20.8809 351.358L19.2197 361H17.5498L15.9941 348.203H17.541L18.5166 357.537L20.1602 348.203H21.5752L23.2275 357.537ZM27.2354 356.157C27.2354 355.472 27.335 354.836 27.5342 354.25C27.7334 353.658 28.0176 353.146 28.3867 352.712C28.7617 352.278 29.2158 351.938 29.749 351.692C30.2822 351.44 30.8828 351.314 31.5508 351.314C32.2246 351.314 32.8281 351.44 33.3613 351.692C33.9004 351.938 34.3545 352.278 34.7236 352.712C35.0986 353.146 35.3857 353.658 35.585 354.25C35.7842 354.836 35.8838 355.472 35.8838 356.157V356.351C35.8838 357.036 35.7842 357.672 35.585 358.258C35.3857 358.844 35.0986 359.354 34.7236 359.787C34.3545 360.221 33.9033 360.561 33.3701 360.807C32.8369 361.053 32.2363 361.176 31.5684 361.176C30.8945 361.176 30.2881 361.053 29.749 360.807C29.2158 360.561 28.7617 360.221 28.3867 359.787C28.0176 359.354 27.7334 358.844 27.5342 358.258C27.335 357.672 27.2354 357.036 27.2354 356.351V356.157ZM28.8613 356.351C28.8613 356.819 28.917 357.268 29.0283 357.695C29.1396 358.117 29.3066 358.489 29.5293 358.812C29.7578 359.134 30.042 359.389 30.3818 359.576C30.7217 359.764 31.1172 359.857 31.5684 359.857C32.0137 359.857 32.4033 359.764 32.7373 359.576C33.0771 359.389 33.3584 359.134 33.5811 358.812C33.8096 358.489 33.9795 358.117 34.0908 357.695C34.2021 357.268 34.2578 356.819 34.2578 356.351V356.157C34.2578 355.694 34.1992 355.252 34.082 354.83C33.9707 354.402 33.8008 354.027 33.5723 353.705C33.3496 353.383 33.0684 353.128 32.7285 352.94C32.3945 352.747 32.002 352.65 31.5508 352.65C31.0996 352.65 30.707 352.747 30.373 352.94C30.0391 353.128 29.7578 353.383 29.5293 353.705C29.3066 354.027 29.1396 354.402 29.0283 354.83C28.917 355.252 28.8613 355.694 28.8613 356.157V356.351ZM44.7344 351.314C44.8867 351.314 45.0449 351.32 45.209 351.332C45.373 351.338 45.5283 351.353 45.6748 351.376C45.8271 351.394 45.9648 351.417 46.0879 351.446C46.2168 351.476 46.3223 351.508 46.4043 351.543L46.1846 353.134C45.8682 353.063 45.5664 353.014 45.2793 352.984C44.998 352.949 44.7021 352.932 44.3916 352.932C43.6299 352.932 43.0117 353.104 42.5371 353.45C42.0684 353.796 41.7227 354.279 41.5 354.9V361H39.8652V351.49H41.4121L41.4912 353.002C41.8779 352.48 42.3408 352.07 42.8799 351.771C43.4248 351.467 44.043 351.314 44.7344 351.314ZM49.0059 356.166C49.0059 355.457 49.0938 354.807 49.2695 354.215C49.4512 353.617 49.7061 353.104 50.0342 352.677C50.3682 352.249 50.7695 351.915 51.2383 351.675C51.707 351.435 52.2314 351.314 52.8115 351.314C53.3799 351.314 53.875 351.411 54.2969 351.604C54.7246 351.792 55.0938 352.067 55.4043 352.431V347.5H57.0303V361H55.5361L55.4658 359.998C55.1494 360.385 54.7715 360.678 54.332 360.877C53.8926 361.076 53.3799 361.176 52.7939 361.176C52.2197 361.176 51.6982 361.053 51.2295 360.807C50.7666 360.561 50.3711 360.221 50.043 359.787C49.7148 359.354 49.46 358.844 49.2783 358.258C49.0967 357.666 49.0059 357.03 49.0059 356.351V356.166ZM50.6318 356.351C50.6318 356.813 50.6816 357.253 50.7812 357.669C50.8809 358.085 51.0332 358.451 51.2383 358.768C51.4492 359.084 51.7158 359.336 52.0381 359.523C52.3604 359.705 52.7471 359.796 53.1982 359.796C53.4736 359.796 53.7227 359.764 53.9453 359.699C54.168 359.635 54.3701 359.544 54.5518 359.427C54.7334 359.304 54.8945 359.16 55.0352 358.996C55.1758 358.826 55.2988 358.639 55.4043 358.434V354.021C55.1934 353.635 54.9092 353.318 54.5518 353.072C54.1943 352.82 53.749 352.694 53.2158 352.694C52.7588 352.694 52.3662 352.788 52.0381 352.976C51.7158 353.163 51.4492 353.418 51.2383 353.74C51.0332 354.057 50.8809 354.426 50.7812 354.848C50.6816 355.264 50.6318 355.703 50.6318 356.166V356.351ZM68.1484 356.351C68.1484 357.03 68.0664 357.666 67.9023 358.258C67.7383 358.844 67.498 359.354 67.1816 359.787C66.8652 360.221 66.4727 360.561 66.0039 360.807C65.541 361.053 65.0107 361.176 64.4131 361.176C63.833 361.176 63.3203 361.082 62.875 360.895C62.4355 360.707 62.0576 360.438 61.7412 360.086V364.656H60.1152V351.49H61.6006L61.6797 352.527C61.9961 352.135 62.377 351.836 62.8223 351.631C63.2734 351.42 63.7949 351.314 64.3867 351.314C64.9961 351.314 65.5352 351.435 66.0039 351.675C66.4727 351.915 66.8652 352.249 67.1816 352.677C67.498 353.104 67.7383 353.617 67.9023 354.215C68.0664 354.807 68.1484 355.457 68.1484 356.166V356.351ZM66.5225 356.166C66.5225 355.703 66.4697 355.264 66.3643 354.848C66.2646 354.426 66.1064 354.057 65.8896 353.74C65.6787 353.418 65.4092 353.163 65.0811 352.976C64.7529 352.788 64.3604 352.694 63.9033 352.694C63.3818 352.694 62.9424 352.817 62.585 353.063C62.2334 353.304 61.9521 353.614 61.7412 353.995V358.574C61.9521 358.949 62.2334 359.257 62.585 359.497C62.9365 359.731 63.3818 359.849 63.9209 359.849C64.3721 359.849 64.7617 359.755 65.0898 359.567C65.418 359.374 65.6875 359.116 65.8984 358.794C66.1094 358.472 66.2646 358.1 66.3643 357.678C66.4697 357.256 66.5225 356.813 66.5225 356.351V356.166ZM77.166 351.314C77.3184 351.314 77.4766 351.32 77.6406 351.332C77.8047 351.338 77.96 351.353 78.1064 351.376C78.2588 351.394 78.3965 351.417 78.5195 351.446C78.6484 351.476 78.7539 351.508 78.8359 351.543L78.6162 353.134C78.2998 353.063 77.998 353.014 77.7109 352.984C77.4297 352.949 77.1338 352.932 76.8232 352.932C76.0615 352.932 75.4434 353.104 74.9688 353.45C74.5 353.796 74.1543 354.279 73.9316 354.9V361H72.2969V351.49H73.8438L73.9229 353.002C74.3096 352.48 74.7725 352.07 75.3115 351.771C75.8564 351.467 76.4746 351.314 77.166 351.314ZM85.9463 361.176C85.2783 361.176 84.6631 361.062 84.1006 360.833C83.5439 360.604 83.0664 360.285 82.668 359.875C82.2695 359.465 81.959 358.979 81.7363 358.416C81.5137 357.854 81.4023 357.241 81.4023 356.579V356.21C81.4023 355.442 81.5254 354.757 81.7715 354.153C82.0176 353.544 82.3428 353.031 82.7471 352.615C83.1572 352.193 83.6201 351.871 84.1357 351.648C84.6572 351.426 85.1904 351.314 85.7354 351.314C86.4209 351.314 87.0186 351.435 87.5283 351.675C88.0439 351.909 88.4717 352.237 88.8115 352.659C89.1514 353.075 89.4033 353.567 89.5674 354.136C89.7373 354.704 89.8223 355.319 89.8223 355.981V356.711H83.0283C83.0459 357.145 83.1279 357.552 83.2744 357.933C83.4268 358.313 83.6318 358.647 83.8896 358.935C84.1533 359.216 84.4668 359.438 84.8301 359.603C85.1934 359.767 85.5947 359.849 86.0342 359.849C86.6143 359.849 87.1299 359.731 87.5811 359.497C88.0322 359.263 88.4072 358.952 88.7061 358.565L89.6992 359.339C89.541 359.579 89.3418 359.811 89.1016 360.033C88.8672 360.25 88.5947 360.443 88.2842 360.613C87.9736 360.783 87.6221 360.918 87.2295 361.018C86.8369 361.123 86.4092 361.176 85.9463 361.176ZM85.7354 352.65C85.4072 352.65 85.0967 352.712 84.8037 352.835C84.5107 352.952 84.2471 353.128 84.0127 353.362C83.7783 353.591 83.5791 353.875 83.415 354.215C83.2568 354.549 83.1455 354.936 83.0811 355.375H88.1963V355.252C88.1787 354.936 88.1172 354.622 88.0117 354.312C87.9121 354.001 87.7627 353.723 87.5635 353.477C87.3643 353.23 87.1123 353.031 86.8076 352.879C86.5088 352.727 86.1514 352.65 85.7354 352.65ZM98.875 358.478C98.875 358.284 98.8369 358.111 98.7607 357.959C98.6846 357.801 98.5557 357.657 98.374 357.528C98.1924 357.399 97.9521 357.282 97.6533 357.177C97.3545 357.065 96.9824 356.966 96.5371 356.878C95.9922 356.767 95.4941 356.632 95.043 356.474C94.5977 356.315 94.2139 356.128 93.8916 355.911C93.5752 355.688 93.3291 355.431 93.1533 355.138C92.9775 354.839 92.8896 354.493 92.8896 354.101C92.8896 353.714 92.9805 353.354 93.1621 353.02C93.3438 352.68 93.5986 352.384 93.9268 352.132C94.2549 351.88 94.6445 351.681 95.0957 351.534C95.5527 351.388 96.0537 351.314 96.5986 351.314C97.1846 351.314 97.7119 351.391 98.1807 351.543C98.6494 351.695 99.0479 351.906 99.376 352.176C99.7041 352.445 99.9561 352.762 100.132 353.125C100.313 353.482 100.404 353.869 100.404 354.285H98.7783C98.7783 354.08 98.7256 353.881 98.6201 353.688C98.5146 353.488 98.3682 353.312 98.1807 353.16C97.9932 353.008 97.7646 352.885 97.4951 352.791C97.2314 352.697 96.9326 352.65 96.5986 352.65C96.2529 352.65 95.9482 352.688 95.6846 352.765C95.4268 352.841 95.21 352.943 95.0342 353.072C94.8643 353.201 94.7354 353.351 94.6475 353.521C94.5596 353.69 94.5156 353.866 94.5156 354.048C94.5156 354.235 94.5508 354.402 94.6211 354.549C94.6914 354.695 94.8115 354.827 94.9814 354.944C95.1572 355.062 95.3887 355.167 95.6758 355.261C95.9688 355.354 96.3379 355.445 96.7832 355.533C97.3691 355.656 97.8936 355.8 98.3564 355.964C98.8193 356.122 99.209 356.315 99.5254 356.544C99.8418 356.767 100.082 357.027 100.246 357.326C100.416 357.625 100.501 357.971 100.501 358.363C100.501 358.785 100.404 359.169 100.211 359.515C100.023 359.86 99.7598 360.156 99.4199 360.402C99.0801 360.648 98.6729 360.839 98.1982 360.974C97.7236 361.108 97.2051 361.176 96.6426 361.176C95.998 361.176 95.4238 361.091 94.9199 360.921C94.416 360.745 93.9883 360.517 93.6367 360.235C93.291 359.948 93.0244 359.617 92.8369 359.242C92.6553 358.867 92.5645 358.478 92.5645 358.073H94.1904C94.2139 358.407 94.3018 358.688 94.4541 358.917C94.6123 359.146 94.8057 359.33 95.0342 359.471C95.2686 359.611 95.5264 359.711 95.8076 359.77C96.0889 359.828 96.3672 359.857 96.6426 359.857C97.3281 359.857 97.8701 359.731 98.2686 359.479C98.667 359.228 98.8691 358.894 98.875 358.478ZM109.686 358.478C109.686 358.284 109.647 358.111 109.571 357.959C109.495 357.801 109.366 357.657 109.185 357.528C109.003 357.399 108.763 357.282 108.464 357.177C108.165 357.065 107.793 356.966 107.348 356.878C106.803 356.767 106.305 356.632 105.854 356.474C105.408 356.315 105.024 356.128 104.702 355.911C104.386 355.688 104.14 355.431 103.964 355.138C103.788 354.839 103.7 354.493 103.7 354.101C103.7 353.714 103.791 353.354 103.973 353.02C104.154 352.68 104.409 352.384 104.737 352.132C105.065 351.88 105.455 351.681 105.906 351.534C106.363 351.388 106.864 351.314 107.409 351.314C107.995 351.314 108.522 351.391 108.991 351.543C109.46 351.695 109.858 351.906 110.187 352.176C110.515 352.445 110.767 352.762 110.942 353.125C111.124 353.482 111.215 353.869 111.215 354.285H109.589C109.589 354.08 109.536 353.881 109.431 353.688C109.325 353.488 109.179 353.312 108.991 353.16C108.804 353.008 108.575 352.885 108.306 352.791C108.042 352.697 107.743 352.65 107.409 352.65C107.063 352.65 106.759 352.688 106.495 352.765C106.237 352.841 106.021 352.943 105.845 353.072C105.675 353.201 105.546 353.351 105.458 353.521C105.37 353.69 105.326 353.866 105.326 354.048C105.326 354.235 105.361 354.402 105.432 354.549C105.502 354.695 105.622 354.827 105.792 354.944C105.968 355.062 106.199 355.167 106.486 355.261C106.779 355.354 107.148 355.445 107.594 355.533C108.18 355.656 108.704 355.8 109.167 355.964C109.63 356.122 110.02 356.315 110.336 356.544C110.652 356.767 110.893 357.027 111.057 357.326C111.227 357.625 111.312 357.971 111.312 358.363C111.312 358.785 111.215 359.169 111.021 359.515C110.834 359.86 110.57 360.156 110.23 360.402C109.891 360.648 109.483 360.839 109.009 360.974C108.534 361.108 108.016 361.176 107.453 361.176C106.809 361.176 106.234 361.091 105.73 360.921C105.227 360.745 104.799 360.517 104.447 360.235C104.102 359.948 103.835 359.617 103.647 359.242C103.466 358.867 103.375 358.478 103.375 358.073H105.001C105.024 358.407 105.112 358.688 105.265 358.917C105.423 359.146 105.616 359.33 105.845 359.471C106.079 359.611 106.337 359.711 106.618 359.77C106.899 359.828 107.178 359.857 107.453 359.857C108.139 359.857 108.681 359.731 109.079 359.479C109.478 359.228 109.68 358.894 109.686 358.478Z" fill="#21413C"/>
<path d="M186.605 357.766C186.605 357.373 186.515 357.042 186.333 356.772C186.157 356.503 185.929 356.277 185.647 356.096C185.366 355.908 185.056 355.753 184.716 355.63C184.382 355.507 184.06 355.396 183.749 355.296C183.298 355.149 182.838 354.974 182.369 354.769C181.906 354.563 181.481 354.312 181.095 354.013C180.714 353.714 180.4 353.362 180.154 352.958C179.914 352.548 179.794 352.067 179.794 351.517C179.794 350.966 179.914 350.474 180.154 350.04C180.4 349.606 180.72 349.24 181.112 348.941C181.505 348.643 181.95 348.417 182.448 348.265C182.946 348.106 183.447 348.027 183.951 348.027C184.508 348.027 185.044 348.121 185.56 348.309C186.075 348.49 186.532 348.748 186.931 349.082C187.329 349.416 187.648 349.82 187.889 350.295C188.129 350.77 188.255 351.3 188.267 351.886H186.597C186.55 351.517 186.459 351.183 186.324 350.884C186.189 350.579 186.011 350.318 185.788 350.102C185.565 349.885 185.299 349.718 184.988 349.601C184.684 349.478 184.338 349.416 183.951 349.416C183.641 349.416 183.336 349.46 183.037 349.548C182.744 349.636 182.48 349.768 182.246 349.943C182.018 350.119 181.833 350.336 181.692 350.594C181.558 350.852 181.49 351.15 181.49 351.49C181.496 351.859 181.59 352.173 181.771 352.431C181.953 352.683 182.182 352.896 182.457 353.072C182.738 353.248 183.04 353.395 183.362 353.512C183.69 353.629 183.998 353.731 184.285 353.819C184.602 353.919 184.921 354.033 185.243 354.162C185.565 354.285 185.876 354.429 186.175 354.593C186.474 354.757 186.752 354.941 187.01 355.146C187.268 355.352 187.493 355.586 187.687 355.85C187.88 356.107 188.029 356.395 188.135 356.711C188.246 357.021 188.302 357.367 188.302 357.748C188.302 358.322 188.173 358.823 187.915 359.251C187.663 359.679 187.335 360.036 186.931 360.323C186.526 360.604 186.069 360.818 185.56 360.965C185.05 361.105 184.54 361.176 184.03 361.176C183.462 361.176 182.905 361.088 182.36 360.912C181.815 360.736 181.326 360.484 180.893 360.156C180.465 359.822 180.116 359.418 179.847 358.943C179.577 358.463 179.434 357.918 179.416 357.309H181.077C181.13 357.707 181.238 358.062 181.402 358.372C181.566 358.677 181.777 358.938 182.035 359.154C182.293 359.365 182.589 359.526 182.923 359.638C183.263 359.743 183.632 359.796 184.03 359.796C184.347 359.796 184.657 359.758 184.962 359.682C185.272 359.6 185.548 359.477 185.788 359.312C186.028 359.143 186.225 358.932 186.377 358.68C186.529 358.422 186.605 358.117 186.605 357.766ZM196.968 361C196.903 360.877 196.851 360.725 196.81 360.543C196.774 360.355 196.748 360.162 196.73 359.963C196.566 360.127 196.382 360.282 196.177 360.429C195.978 360.575 195.755 360.704 195.509 360.815C195.269 360.927 195.011 361.015 194.735 361.079C194.46 361.144 194.167 361.176 193.856 361.176C193.353 361.176 192.896 361.103 192.485 360.956C192.081 360.81 191.735 360.613 191.448 360.367C191.167 360.115 190.947 359.819 190.789 359.479C190.637 359.134 190.561 358.762 190.561 358.363C190.561 357.842 190.663 357.385 190.868 356.992C191.079 356.6 191.375 356.274 191.756 356.017C192.137 355.753 192.594 355.557 193.127 355.428C193.666 355.299 194.267 355.234 194.929 355.234H196.704V354.487C196.704 354.2 196.651 353.942 196.546 353.714C196.44 353.485 196.291 353.292 196.098 353.134C195.904 352.97 195.667 352.844 195.386 352.756C195.11 352.668 194.8 352.624 194.454 352.624C194.132 352.624 193.842 352.665 193.584 352.747C193.332 352.829 193.118 352.938 192.942 353.072C192.767 353.207 192.629 353.368 192.529 353.556C192.436 353.737 192.389 353.928 192.389 354.127H190.754C190.76 353.781 190.848 353.441 191.018 353.107C191.193 352.773 191.442 352.475 191.765 352.211C192.093 351.941 192.488 351.725 192.951 351.561C193.42 351.396 193.95 351.314 194.542 351.314C195.081 351.314 195.582 351.382 196.045 351.517C196.508 351.646 196.906 351.845 197.24 352.114C197.58 352.378 197.847 352.709 198.04 353.107C198.233 353.506 198.33 353.972 198.33 354.505V358.926C198.33 359.242 198.359 359.579 198.418 359.937C198.477 360.288 198.559 360.596 198.664 360.859V361H196.968ZM194.094 359.761C194.41 359.761 194.706 359.72 194.981 359.638C195.257 359.556 195.506 359.447 195.729 359.312C195.957 359.178 196.153 359.025 196.317 358.855C196.481 358.68 196.61 358.498 196.704 358.311V356.386H195.192C194.243 356.386 193.505 356.526 192.978 356.808C192.45 357.089 192.187 357.531 192.187 358.135C192.187 358.369 192.225 358.586 192.301 358.785C192.383 358.984 192.503 359.157 192.661 359.304C192.819 359.444 193.019 359.556 193.259 359.638C193.499 359.72 193.777 359.761 194.094 359.761ZM207.849 358.478C207.849 358.284 207.811 358.111 207.734 357.959C207.658 357.801 207.529 357.657 207.348 357.528C207.166 357.399 206.926 357.282 206.627 357.177C206.328 357.065 205.956 356.966 205.511 356.878C204.966 356.767 204.468 356.632 204.017 356.474C203.571 356.315 203.188 356.128 202.865 355.911C202.549 355.688 202.303 355.431 202.127 355.138C201.951 354.839 201.863 354.493 201.863 354.101C201.863 353.714 201.954 353.354 202.136 353.02C202.317 352.68 202.572 352.384 202.9 352.132C203.229 351.88 203.618 351.681 204.069 351.534C204.526 351.388 205.027 351.314 205.572 351.314C206.158 351.314 206.686 351.391 207.154 351.543C207.623 351.695 208.021 351.906 208.35 352.176C208.678 352.445 208.93 352.762 209.105 353.125C209.287 353.482 209.378 353.869 209.378 354.285H207.752C207.752 354.08 207.699 353.881 207.594 353.688C207.488 353.488 207.342 353.312 207.154 353.16C206.967 353.008 206.738 352.885 206.469 352.791C206.205 352.697 205.906 352.65 205.572 352.65C205.227 352.65 204.922 352.688 204.658 352.765C204.4 352.841 204.184 352.943 204.008 353.072C203.838 353.201 203.709 353.351 203.621 353.521C203.533 353.69 203.489 353.866 203.489 354.048C203.489 354.235 203.524 354.402 203.595 354.549C203.665 354.695 203.785 354.827 203.955 354.944C204.131 355.062 204.362 355.167 204.649 355.261C204.942 355.354 205.312 355.445 205.757 355.533C206.343 355.656 206.867 355.8 207.33 355.964C207.793 356.122 208.183 356.315 208.499 356.544C208.815 356.767 209.056 357.027 209.22 357.326C209.39 357.625 209.475 357.971 209.475 358.363C209.475 358.785 209.378 359.169 209.185 359.515C208.997 359.86 208.733 360.156 208.394 360.402C208.054 360.648 207.646 360.839 207.172 360.974C206.697 361.108 206.179 361.176 205.616 361.176C204.972 361.176 204.397 361.091 203.894 360.921C203.39 360.745 202.962 360.517 202.61 360.235C202.265 359.948 201.998 359.617 201.811 359.242C201.629 358.867 201.538 358.478 201.538 358.073H203.164C203.188 358.407 203.275 358.688 203.428 358.917C203.586 359.146 203.779 359.33 204.008 359.471C204.242 359.611 204.5 359.711 204.781 359.77C205.062 359.828 205.341 359.857 205.616 359.857C206.302 359.857 206.844 359.731 207.242 359.479C207.641 359.228 207.843 358.894 207.849 358.478ZM218.659 358.478C218.659 358.284 218.621 358.111 218.545 357.959C218.469 357.801 218.34 357.657 218.158 357.528C217.977 357.399 217.736 357.282 217.438 357.177C217.139 357.065 216.767 356.966 216.321 356.878C215.776 356.767 215.278 356.632 214.827 356.474C214.382 356.315 213.998 356.128 213.676 355.911C213.359 355.688 213.113 355.431 212.938 355.138C212.762 354.839 212.674 354.493 212.674 354.101C212.674 353.714 212.765 353.354 212.946 353.02C213.128 352.68 213.383 352.384 213.711 352.132C214.039 351.88 214.429 351.681 214.88 351.534C215.337 351.388 215.838 351.314 216.383 351.314C216.969 351.314 217.496 351.391 217.965 351.543C218.434 351.695 218.832 351.906 219.16 352.176C219.488 352.445 219.74 352.762 219.916 353.125C220.098 353.482 220.188 353.869 220.188 354.285H218.562C218.562 354.08 218.51 353.881 218.404 353.688C218.299 353.488 218.152 353.312 217.965 353.16C217.777 353.008 217.549 352.885 217.279 352.791C217.016 352.697 216.717 352.65 216.383 352.65C216.037 352.65 215.732 352.688 215.469 352.765C215.211 352.841 214.994 352.943 214.818 353.072C214.648 353.201 214.52 353.351 214.432 353.521C214.344 353.69 214.3 353.866 214.3 354.048C214.3 354.235 214.335 354.402 214.405 354.549C214.476 354.695 214.596 354.827 214.766 354.944C214.941 355.062 215.173 355.167 215.46 355.261C215.753 355.354 216.122 355.445 216.567 355.533C217.153 355.656 217.678 355.8 218.141 355.964C218.604 356.122 218.993 356.315 219.31 356.544C219.626 356.767 219.866 357.027 220.03 357.326C220.2 357.625 220.285 357.971 220.285 358.363C220.285 358.785 220.188 359.169 219.995 359.515C219.808 359.86 219.544 360.156 219.204 360.402C218.864 360.648 218.457 360.839 217.982 360.974C217.508 361.108 216.989 361.176 216.427 361.176C215.782 361.176 215.208 361.091 214.704 360.921C214.2 360.745 213.772 360.517 213.421 360.235C213.075 359.948 212.809 359.617 212.621 359.242C212.439 358.867 212.349 358.478 212.349 358.073H213.975C213.998 358.407 214.086 358.688 214.238 358.917C214.396 359.146 214.59 359.33 214.818 359.471C215.053 359.611 215.311 359.711 215.592 359.77C215.873 359.828 216.151 359.857 216.427 359.857C217.112 359.857 217.654 359.731 218.053 359.479C218.451 359.228 218.653 358.894 218.659 358.478Z" fill="#21413C"/>
<path d="M324.589 355.867V361H322.963V348.203H327.111C327.686 348.215 328.228 348.306 328.737 348.476C329.253 348.646 329.704 348.892 330.091 349.214C330.478 349.536 330.782 349.935 331.005 350.409C331.233 350.884 331.348 351.429 331.348 352.044C331.348 352.659 331.233 353.204 331.005 353.679C330.782 354.147 330.478 354.543 330.091 354.865C329.704 355.188 329.253 355.434 328.737 355.604C328.228 355.773 327.686 355.861 327.111 355.867H324.589ZM324.589 354.531H327.111C327.486 354.525 327.832 354.467 328.148 354.355C328.465 354.238 328.74 354.074 328.975 353.863C329.209 353.652 329.391 353.397 329.52 353.099C329.654 352.794 329.722 352.448 329.722 352.062C329.722 351.675 329.654 351.326 329.52 351.016C329.391 350.705 329.209 350.441 328.975 350.225C328.746 350.008 328.471 349.841 328.148 349.724C327.832 349.606 327.486 349.545 327.111 349.539H324.589V354.531ZM335.25 352.905C335.59 352.407 336.009 352.021 336.507 351.745C337.005 351.464 337.564 351.32 338.186 351.314C338.684 351.314 339.135 351.388 339.539 351.534C339.949 351.675 340.298 351.897 340.585 352.202C340.872 352.507 341.092 352.894 341.244 353.362C341.402 353.825 341.481 354.376 341.481 355.015V361H339.855V354.997C339.855 354.218 339.668 353.638 339.293 353.257C338.924 352.876 338.394 352.688 337.702 352.694C337.181 352.694 336.706 352.823 336.278 353.081C335.856 353.333 335.514 353.67 335.25 354.092V361H333.624V347.5H335.25V352.905ZM352.459 356.351C352.459 357.03 352.377 357.666 352.213 358.258C352.049 358.844 351.809 359.354 351.492 359.787C351.176 360.221 350.783 360.561 350.314 360.807C349.852 361.053 349.321 361.176 348.724 361.176C348.144 361.176 347.631 361.082 347.186 360.895C346.746 360.707 346.368 360.438 346.052 360.086V364.656H344.426V351.49H345.911L345.99 352.527C346.307 352.135 346.688 351.836 347.133 351.631C347.584 351.42 348.105 351.314 348.697 351.314C349.307 351.314 349.846 351.435 350.314 351.675C350.783 351.915 351.176 352.249 351.492 352.677C351.809 353.104 352.049 353.617 352.213 354.215C352.377 354.807 352.459 355.457 352.459 356.166V356.351ZM350.833 356.166C350.833 355.703 350.78 355.264 350.675 354.848C350.575 354.426 350.417 354.057 350.2 353.74C349.989 353.418 349.72 353.163 349.392 352.976C349.063 352.788 348.671 352.694 348.214 352.694C347.692 352.694 347.253 352.817 346.896 353.063C346.544 353.304 346.263 353.614 346.052 353.995V358.574C346.263 358.949 346.544 359.257 346.896 359.497C347.247 359.731 347.692 359.849 348.231 359.849C348.683 359.849 349.072 359.755 349.4 359.567C349.729 359.374 349.998 359.116 350.209 358.794C350.42 358.472 350.575 358.1 350.675 357.678C350.78 357.256 350.833 356.813 350.833 356.351V356.166Z" fill="#21413C"/>
<path fill-rule="evenodd" clip-rule="evenodd" d="M99 145.31C99 140.168 94.8321 136 89.69 136H38.31C33.1681 136 29 140.168 29 145.31V196.69C29 201.832 33.1681 206 38.31 206H89.69C94.8321 206 99 201.832 99 196.69V145.31ZM76.3205 185.93C77.4433 185.087 78.3869 183.89 79.1497 182.337C79.9129 180.785 80.2943 179.106 80.2943 177.299C80.2943 175.053 79.6671 173.106 78.4127 171.457C77.1583 169.808 75.3641 168.642 73.0311 167.958C74.8377 167.063 76.1889 165.892 77.0838 164.435C77.9781 162.979 78.4261 161.431 78.4261 159.782C78.4261 158.01 77.9216 156.325 76.913 154.702C75.9033 153.079 74.5089 151.902 72.7276 151.121C70.9468 150.341 68.583 150 65.6352 150H50.28V188.64H65.8726C68.3282 188.64 70.4036 188.347 72.0959 187.916C73.7888 187.486 75.1972 186.772 76.3205 185.93ZM71.8284 163.792C71.1704 164.686 70.1921 165.359 68.8946 165.744C67.9113 166.043 66.2889 166.256 64.0254 166.256H54.7367V155.056H63.3937C63.9509 155.056 64.4752 155.051 64.9665 155.047C66.9192 155.031 68.3511 155.019 69.2625 155.305C70.4032 155.665 71.2796 156.042 71.894 157.017C72.5083 157.991 72.8157 159.127 72.8157 160.407C72.8157 161.758 72.487 162.897 71.8284 163.792ZM70.2492 171.626C69.146 171.263 67.6335 171.272 65.7117 171.284C65.3566 171.286 64.9875 171.288 64.6045 171.288H54.7367V184.168H65.2893C66.938 184.168 68.0961 183.992 68.763 183.869C69.9384 183.658 70.9212 183.25 71.7108 182.759C72.4999 182.268 73.1489 181.524 73.6585 180.585C74.167 179.647 74.4218 178.549 74.4218 177.321C74.4218 175.883 74.0533 174.778 73.3158 173.716C72.5788 172.655 71.5568 172.056 70.2492 171.626Z" fill="#5B4282"/>
<path d="M194.093 229.321C193.554 229.954 192.936 230.423 192.238 230.728C191.541 231.032 190.776 231.182 189.944 231.176C189.417 231.17 188.931 231.091 188.485 230.938C188.046 230.78 187.65 230.566 187.299 230.297C186.947 230.021 186.64 229.699 186.376 229.33C186.112 228.961 185.89 228.562 185.708 228.135C185.532 227.701 185.397 227.25 185.304 226.781C185.216 226.307 185.169 225.829 185.163 225.349V223.863C185.169 223.389 185.21 222.917 185.286 222.448C185.368 221.974 185.491 221.52 185.655 221.086C185.819 220.652 186.024 220.251 186.271 219.882C186.517 219.507 186.81 219.185 187.149 218.915C187.495 218.64 187.885 218.423 188.318 218.265C188.752 218.106 189.238 218.027 189.777 218.027C190.375 218.027 190.926 218.121 191.43 218.309C191.934 218.49 192.373 218.754 192.748 219.1C193.123 219.439 193.425 219.853 193.653 220.339C193.882 220.819 194.022 221.358 194.075 221.956H192.467C192.402 221.587 192.303 221.247 192.168 220.937C192.033 220.62 191.854 220.351 191.632 220.128C191.415 219.905 191.154 219.732 190.85 219.609C190.545 219.48 190.19 219.416 189.786 219.416C189.399 219.416 189.057 219.483 188.758 219.618C188.459 219.747 188.198 219.923 187.976 220.146C187.753 220.368 187.568 220.629 187.422 220.928C187.275 221.221 187.155 221.531 187.062 221.859C186.968 222.188 186.9 222.521 186.859 222.861C186.818 223.201 186.798 223.529 186.798 223.846V225.349C186.804 225.671 186.83 226.005 186.877 226.351C186.93 226.69 187.009 227.024 187.114 227.353C187.22 227.681 187.354 227.991 187.519 228.284C187.683 228.577 187.879 228.835 188.107 229.058C188.342 229.28 188.611 229.459 188.916 229.594C189.221 229.723 189.566 229.79 189.953 229.796C190.176 229.802 190.407 229.793 190.647 229.77C190.894 229.746 191.131 229.699 191.359 229.629C191.588 229.559 191.802 229.465 192.001 229.348C192.2 229.225 192.367 229.066 192.502 228.873L192.52 225.999H189.918V224.628H194.066L194.093 229.321ZM196.879 221.49H201.739V229.594H204.842V231H196.879V229.594H200.113V222.905H196.879V221.49ZM199.902 218.994C199.902 218.725 199.981 218.499 200.14 218.317C200.304 218.13 200.55 218.036 200.878 218.036C201.2 218.036 201.443 218.13 201.607 218.317C201.771 218.499 201.854 218.725 201.854 218.994C201.854 219.258 201.771 219.478 201.607 219.653C201.443 219.829 201.2 219.917 200.878 219.917C200.55 219.917 200.304 219.829 200.14 219.653C199.981 219.478 199.902 219.258 199.902 218.994ZM211.284 219.188V221.49H214.905V222.747H211.284V227.915C211.284 228.284 211.331 228.589 211.425 228.829C211.519 229.069 211.647 229.263 211.812 229.409C211.976 229.55 212.163 229.649 212.374 229.708C212.591 229.767 212.819 229.796 213.06 229.796C213.235 229.796 213.417 229.787 213.604 229.77C213.792 229.746 213.974 229.72 214.149 229.69C214.331 229.661 214.498 229.632 214.65 229.603C214.809 229.567 214.938 229.538 215.037 229.515L215.266 230.666C215.131 230.748 214.967 230.821 214.773 230.886C214.58 230.944 214.369 230.994 214.141 231.035C213.912 231.082 213.669 231.117 213.411 231.141C213.159 231.164 212.907 231.176 212.655 231.176C212.233 231.176 211.838 231.117 211.469 231C211.105 230.877 210.789 230.687 210.52 230.429C210.25 230.165 210.036 229.828 209.878 229.418C209.726 229.002 209.649 228.501 209.649 227.915V222.747H207.153V221.49H209.649V219.188H211.284Z" fill="#21413C"/>
<path d="M233.681 167.882L203.117 137.32C201.358 135.56 198.504 135.56 196.742 137.32L190.396 143.667L198.446 151.718C200.318 151.086 202.463 151.51 203.954 153.001C205.453 154.502 205.873 156.665 205.226 158.542L212.985 166.302C214.862 165.655 217.029 166.073 218.527 167.575C220.623 169.669 220.623 173.064 218.527 175.16C216.431 177.256 213.037 177.256 210.939 175.16C209.363 173.583 208.974 171.268 209.772 169.326L202.537 162.09L202.536 181.133C203.047 181.386 203.529 181.723 203.955 182.147C206.05 184.241 206.05 187.636 203.955 189.735C201.859 191.829 198.463 191.829 196.369 189.735C194.274 187.636 194.274 184.242 196.369 182.147C196.887 181.63 197.486 181.239 198.125 180.977V161.757C197.486 161.496 196.888 161.108 196.369 160.587C194.782 159.001 194.4 156.672 195.214 154.722L187.277 146.785L166.32 167.741C164.56 169.503 164.56 172.357 166.32 174.118L196.884 204.68C198.644 206.44 201.498 206.44 203.261 204.68L233.681 174.26C235.441 172.499 235.441 169.642 233.681 167.882Z" fill="#F34F29"/>
<path d="M287.979 218.203H289.641V227.106C289.629 227.698 289.515 228.243 289.298 228.741C289.087 229.239 288.797 229.67 288.428 230.033C288.059 230.391 287.622 230.672 287.118 230.877C286.62 231.076 286.075 231.176 285.483 231.176C284.886 231.176 284.341 231.085 283.849 230.903C283.362 230.722 282.938 230.464 282.574 230.13C282.217 229.79 281.93 229.383 281.713 228.908C281.496 228.428 281.361 227.892 281.309 227.3H282.961C282.979 227.657 283.049 227.988 283.172 228.293C283.301 228.598 283.474 228.864 283.69 229.093C283.907 229.315 284.165 229.488 284.464 229.611C284.769 229.734 285.108 229.796 285.483 229.796C285.87 229.796 286.216 229.726 286.521 229.585C286.825 229.438 287.083 229.242 287.294 228.996C287.511 228.75 287.675 228.466 287.786 228.144C287.903 227.815 287.968 227.47 287.979 227.106V218.203ZM299.036 231C298.972 230.877 298.919 230.725 298.878 230.543C298.843 230.355 298.816 230.162 298.799 229.963C298.635 230.127 298.45 230.282 298.245 230.429C298.046 230.575 297.823 230.704 297.577 230.815C297.337 230.927 297.079 231.015 296.804 231.079C296.528 231.144 296.235 231.176 295.925 231.176C295.421 231.176 294.964 231.103 294.554 230.956C294.149 230.81 293.804 230.613 293.517 230.367C293.235 230.115 293.016 229.819 292.857 229.479C292.705 229.134 292.629 228.762 292.629 228.363C292.629 227.842 292.731 227.385 292.937 226.992C293.147 226.6 293.443 226.274 293.824 226.017C294.205 225.753 294.662 225.557 295.195 225.428C295.734 225.299 296.335 225.234 296.997 225.234H298.772V224.487C298.772 224.2 298.72 223.942 298.614 223.714C298.509 223.485 298.359 223.292 298.166 223.134C297.973 222.97 297.735 222.844 297.454 222.756C297.179 222.668 296.868 222.624 296.522 222.624C296.2 222.624 295.91 222.665 295.652 222.747C295.4 222.829 295.187 222.938 295.011 223.072C294.835 223.207 294.697 223.368 294.598 223.556C294.504 223.737 294.457 223.928 294.457 224.127H292.822C292.828 223.781 292.916 223.441 293.086 223.107C293.262 222.773 293.511 222.475 293.833 222.211C294.161 221.941 294.557 221.725 295.02 221.561C295.488 221.396 296.019 221.314 296.61 221.314C297.149 221.314 297.65 221.382 298.113 221.517C298.576 221.646 298.975 221.845 299.309 222.114C299.648 222.378 299.915 222.709 300.108 223.107C300.302 223.506 300.398 223.972 300.398 224.505V228.926C300.398 229.242 300.428 229.579 300.486 229.937C300.545 230.288 300.627 230.596 300.732 230.859V231H299.036ZM296.162 229.761C296.479 229.761 296.774 229.72 297.05 229.638C297.325 229.556 297.574 229.447 297.797 229.312C298.025 229.178 298.222 229.025 298.386 228.855C298.55 228.68 298.679 228.498 298.772 228.311V226.386H297.261C296.312 226.386 295.573 226.526 295.046 226.808C294.519 227.089 294.255 227.531 294.255 228.135C294.255 228.369 294.293 228.586 294.369 228.785C294.451 228.984 294.571 229.157 294.729 229.304C294.888 229.444 295.087 229.556 295.327 229.638C295.567 229.72 295.846 229.761 296.162 229.761ZM307.324 228.662L307.474 229.251L307.632 228.662L310.295 221.49H311.956L308.08 231H306.841L302.93 221.49H304.6L307.324 228.662ZM320.657 231C320.593 230.877 320.54 230.725 320.499 230.543C320.464 230.355 320.438 230.162 320.42 229.963C320.256 230.127 320.071 230.282 319.866 230.429C319.667 230.575 319.444 230.704 319.198 230.815C318.958 230.927 318.7 231.015 318.425 231.079C318.149 231.144 317.856 231.176 317.546 231.176C317.042 231.176 316.585 231.103 316.175 230.956C315.771 230.81 315.425 230.613 315.138 230.367C314.856 230.115 314.637 229.819 314.479 229.479C314.326 229.134 314.25 228.762 314.25 228.363C314.25 227.842 314.353 227.385 314.558 226.992C314.769 226.6 315.064 226.274 315.445 226.017C315.826 225.753 316.283 225.557 316.816 225.428C317.355 225.299 317.956 225.234 318.618 225.234H320.394V224.487C320.394 224.2 320.341 223.942 320.235 223.714C320.13 223.485 319.98 223.292 319.787 223.134C319.594 222.97 319.356 222.844 319.075 222.756C318.8 222.668 318.489 222.624 318.144 222.624C317.821 222.624 317.531 222.665 317.273 222.747C317.021 222.829 316.808 222.938 316.632 223.072C316.456 223.207 316.318 223.368 316.219 223.556C316.125 223.737 316.078 223.928 316.078 224.127H314.443C314.449 223.781 314.537 223.441 314.707 223.107C314.883 222.773 315.132 222.475 315.454 222.211C315.782 221.941 316.178 221.725 316.641 221.561C317.109 221.396 317.64 221.314 318.231 221.314C318.771 221.314 319.271 221.382 319.734 221.517C320.197 221.646 320.596 221.845 320.93 222.114C321.27 222.378 321.536 222.709 321.729 223.107C321.923 223.506 322.02 223.972 322.02 224.505V228.926C322.02 229.242 322.049 229.579 322.107 229.937C322.166 230.288 322.248 230.596 322.354 230.859V231H320.657ZM317.783 229.761C318.1 229.761 318.396 229.72 318.671 229.638C318.946 229.556 319.195 229.447 319.418 229.312C319.646 229.178 319.843 229.025 320.007 228.855C320.171 228.68 320.3 228.498 320.394 228.311V226.386H318.882C317.933 226.386 317.194 226.526 316.667 226.808C316.14 227.089 315.876 227.531 315.876 228.135C315.876 228.369 315.914 228.586 315.99 228.785C316.072 228.984 316.192 229.157 316.351 229.304C316.509 229.444 316.708 229.556 316.948 229.638C317.188 229.72 317.467 229.761 317.783 229.761ZM331.538 228.478C331.538 228.284 331.5 228.111 331.424 227.959C331.348 227.801 331.219 227.657 331.037 227.528C330.855 227.399 330.615 227.282 330.316 227.177C330.018 227.065 329.646 226.966 329.2 226.878C328.655 226.767 328.157 226.632 327.706 226.474C327.261 226.315 326.877 226.128 326.555 225.911C326.238 225.688 325.992 225.431 325.816 225.138C325.641 224.839 325.553 224.493 325.553 224.101C325.553 223.714 325.644 223.354 325.825 223.02C326.007 222.68 326.262 222.384 326.59 222.132C326.918 221.88 327.308 221.681 327.759 221.534C328.216 221.388 328.717 221.314 329.262 221.314C329.848 221.314 330.375 221.391 330.844 221.543C331.312 221.695 331.711 221.906 332.039 222.176C332.367 222.445 332.619 222.762 332.795 223.125C332.977 223.482 333.067 223.869 333.067 224.285H331.441C331.441 224.08 331.389 223.881 331.283 223.688C331.178 223.488 331.031 223.312 330.844 223.16C330.656 223.008 330.428 222.885 330.158 222.791C329.895 222.697 329.596 222.65 329.262 222.65C328.916 222.65 328.611 222.688 328.348 222.765C328.09 222.841 327.873 222.943 327.697 223.072C327.527 223.201 327.398 223.351 327.311 223.521C327.223 223.69 327.179 223.866 327.179 224.048C327.179 224.235 327.214 224.402 327.284 224.549C327.354 224.695 327.475 224.827 327.645 224.944C327.82 225.062 328.052 225.167 328.339 225.261C328.632 225.354 329.001 225.445 329.446 225.533C330.032 225.656 330.557 225.8 331.02 225.964C331.482 226.122 331.872 226.315 332.188 226.544C332.505 226.767 332.745 227.027 332.909 227.326C333.079 227.625 333.164 227.971 333.164 228.363C333.164 228.785 333.067 229.169 332.874 229.515C332.687 229.86 332.423 230.156 332.083 230.402C331.743 230.648 331.336 230.839 330.861 230.974C330.387 231.108 329.868 231.176 329.306 231.176C328.661 231.176 328.087 231.091 327.583 230.921C327.079 230.745 326.651 230.517 326.3 230.235C325.954 229.948 325.688 229.617 325.5 229.242C325.318 228.867 325.228 228.478 325.228 228.073H326.854C326.877 228.407 326.965 228.688 327.117 228.917C327.275 229.146 327.469 229.33 327.697 229.471C327.932 229.611 328.189 229.711 328.471 229.77C328.752 229.828 329.03 229.857 329.306 229.857C329.991 229.857 330.533 229.731 330.932 229.479C331.33 229.228 331.532 228.894 331.538 228.478ZM340.081 229.857C340.374 229.857 340.658 229.811 340.934 229.717C341.215 229.623 341.464 229.494 341.681 229.33C341.897 229.16 342.07 228.964 342.199 228.741C342.334 228.513 342.404 228.267 342.41 228.003H343.948C343.942 228.425 343.831 228.829 343.614 229.216C343.403 229.597 343.119 229.934 342.762 230.227C342.404 230.514 341.994 230.745 341.531 230.921C341.068 231.091 340.585 231.176 340.081 231.176C339.36 231.176 338.73 231.047 338.191 230.789C337.652 230.531 337.201 230.186 336.838 229.752C336.48 229.312 336.211 228.809 336.029 228.24C335.848 227.666 335.757 227.062 335.757 226.43V226.061C335.757 225.434 335.848 224.833 336.029 224.259C336.211 223.685 336.48 223.181 336.838 222.747C337.201 222.308 337.652 221.959 338.191 221.701C338.73 221.443 339.36 221.314 340.081 221.314C340.644 221.314 341.159 221.405 341.628 221.587C342.103 221.763 342.51 222.006 342.85 222.316C343.195 222.621 343.465 222.984 343.658 223.406C343.852 223.828 343.948 224.279 343.948 224.76H342.41C342.404 224.473 342.34 224.203 342.217 223.951C342.1 223.693 341.938 223.468 341.733 223.274C341.528 223.081 341.282 222.929 340.995 222.817C340.714 222.706 340.409 222.65 340.081 222.65C339.577 222.65 339.152 222.753 338.807 222.958C338.467 223.157 338.191 223.421 337.98 223.749C337.77 224.071 337.617 224.435 337.523 224.839C337.436 225.243 337.392 225.65 337.392 226.061V226.43C337.392 226.846 337.436 227.259 337.523 227.669C337.617 228.073 337.767 228.439 337.972 228.768C338.183 229.09 338.458 229.354 338.798 229.559C339.144 229.758 339.571 229.857 340.081 229.857ZM353.071 221.314C353.224 221.314 353.382 221.32 353.546 221.332C353.71 221.338 353.865 221.353 354.012 221.376C354.164 221.394 354.302 221.417 354.425 221.446C354.554 221.476 354.659 221.508 354.741 221.543L354.521 223.134C354.205 223.063 353.903 223.014 353.616 222.984C353.335 222.949 353.039 222.932 352.729 222.932C351.967 222.932 351.349 223.104 350.874 223.45C350.405 223.796 350.06 224.279 349.837 224.9V231H348.202V221.49H349.749L349.828 223.002C350.215 222.48 350.678 222.07 351.217 221.771C351.762 221.467 352.38 221.314 353.071 221.314ZM357.905 221.49H362.766V229.594H365.868V231H357.905V229.594H361.14V222.905H357.905V221.49ZM360.929 218.994C360.929 218.725 361.008 218.499 361.166 218.317C361.33 218.13 361.576 218.036 361.904 218.036C362.227 218.036 362.47 218.13 362.634 218.317C362.798 218.499 362.88 218.725 362.88 218.994C362.88 219.258 362.798 219.478 362.634 219.653C362.47 219.829 362.227 219.917 361.904 219.917C361.576 219.917 361.33 219.829 361.166 219.653C361.008 219.478 360.929 219.258 360.929 218.994ZM376.485 226.351C376.485 227.03 376.403 227.666 376.239 228.258C376.075 228.844 375.835 229.354 375.519 229.787C375.202 230.221 374.81 230.561 374.341 230.807C373.878 231.053 373.348 231.176 372.75 231.176C372.17 231.176 371.657 231.082 371.212 230.895C370.772 230.707 370.395 230.438 370.078 230.086V234.656H368.452V221.49H369.938L370.017 222.527C370.333 222.135 370.714 221.836 371.159 221.631C371.61 221.42 372.132 221.314 372.724 221.314C373.333 221.314 373.872 221.435 374.341 221.675C374.81 221.915 375.202 222.249 375.519 222.677C375.835 223.104 376.075 223.617 376.239 224.215C376.403 224.807 376.485 225.457 376.485 226.166V226.351ZM374.859 226.166C374.859 225.703 374.807 225.264 374.701 224.848C374.602 224.426 374.443 224.057 374.227 223.74C374.016 223.418 373.746 223.163 373.418 222.976C373.09 222.788 372.697 222.694 372.24 222.694C371.719 222.694 371.279 222.817 370.922 223.063C370.57 223.304 370.289 223.614 370.078 223.995V228.574C370.289 228.949 370.57 229.257 370.922 229.497C371.273 229.731 371.719 229.849 372.258 229.849C372.709 229.849 373.099 229.755 373.427 229.567C373.755 229.374 374.024 229.116 374.235 228.794C374.446 228.472 374.602 228.1 374.701 227.678C374.807 227.256 374.859 226.813 374.859 226.351V226.166ZM383.121 219.188V221.49H386.742V222.747H383.121V227.915C383.121 228.284 383.168 228.589 383.262 228.829C383.355 229.069 383.484 229.263 383.648 229.409C383.812 229.55 384 229.649 384.211 229.708C384.428 229.767 384.656 229.796 384.896 229.796C385.072 229.796 385.254 229.787 385.441 229.77C385.629 229.746 385.811 229.72 385.986 229.69C386.168 229.661 386.335 229.632 386.487 229.603C386.646 229.567 386.774 229.538 386.874 229.515L387.103 230.666C386.968 230.748 386.804 230.821 386.61 230.886C386.417 230.944 386.206 230.994 385.978 231.035C385.749 231.082 385.506 231.117 385.248 231.141C384.996 231.164 384.744 231.176 384.492 231.176C384.07 231.176 383.675 231.117 383.306 231C382.942 230.877 382.626 230.687 382.356 230.429C382.087 230.165 381.873 229.828 381.715 229.418C381.562 229.002 381.486 228.501 381.486 227.915V222.747H378.99V221.49H381.486V219.188H383.121Z" fill="#21413C"/>
<path d="M300 136H369.999V206H300L300 136Z" fill="#F0DB4F"/>
<path fill-rule="evenodd" clip-rule="evenodd" d="M355.507 180.932C361.676 183.433 363.758 186.116 364.271 189.309C364.763 192.057 364.15 193.84 364.058 194.107C361.782 201.892 349.094 202.145 344.023 197.001C342.952 195.791 342.28 195.158 341.641 193.761C344.336 192.211 344.336 192.211 346.958 190.694C348.382 192.883 349.699 194.087 352.068 194.58C355.282 194.972 358.516 193.867 357.79 190.454C357.045 187.666 351.21 186.988 347.237 184.006C343.205 181.298 342.26 174.718 345.574 170.958C346.678 169.567 348.561 168.53 350.537 168.031L352.6 167.764C356.559 167.684 359.034 168.729 360.851 170.758C361.356 171.271 361.768 171.823 362.541 173.02C360.431 174.365 360.438 174.352 357.417 176.308C356.771 174.917 355.7 174.045 354.569 173.666C352.813 173.134 350.597 173.713 350.138 175.569C349.978 176.141 350.011 176.673 350.264 177.618C350.976 179.242 353.365 179.947 355.507 180.932ZM331.507 168.172H338.054C338.054 170.169 338.058 172.164 338.061 174.158C338.068 178.175 338.076 182.186 338.053 186.198C338.055 186.741 338.064 187.277 338.073 187.804C338.122 190.847 338.166 193.61 336.896 195.952C335.865 198.048 333.895 199.426 331.613 200.091C328.106 200.896 324.752 200.437 322.257 198.939C320.587 197.915 319.283 196.338 318.398 194.521L323.721 191.261C323.768 191.281 323.908 191.534 324.094 191.86C324.772 192.997 325.358 193.802 326.509 194.368C327.64 194.754 330.123 195 331.08 193.011C331.548 192.204 331.523 189.94 331.495 187.23C331.487 186.543 331.48 185.827 331.48 185.099L331.507 168.172Z" fill="#323330"/>
<g clip-path="url(#clip0)">
<path d="M233.311 306.291C230.064 306.308 227.242 307.09 224.879 308.247C224.012 306.529 223.145 304.999 222.992 303.877C222.822 302.568 222.618 301.769 222.822 300.205C223.026 298.641 223.944 296.414 223.927 296.244C223.91 296.074 223.723 295.275 221.852 295.258C219.982 295.241 218.367 295.615 218.18 296.108C217.993 296.601 217.636 297.723 217.398 298.879C217.075 300.579 213.658 306.648 211.703 309.828C211.074 308.587 210.53 307.498 210.411 306.631C210.241 305.322 210.037 304.523 210.241 302.959C210.445 301.395 211.363 299.168 211.346 298.998C211.329 298.828 211.142 298.029 209.272 298.012C207.402 297.995 205.787 298.369 205.6 298.862C205.413 299.355 205.209 300.511 204.818 301.633C204.427 302.755 199.888 312.888 198.698 315.506C198.086 316.849 197.559 317.92 197.185 318.651C197.185 318.651 197.168 318.702 197.117 318.787C196.794 319.416 196.607 319.756 196.607 319.756C196.607 319.756 196.607 319.756 196.607 319.773C196.352 320.232 196.08 320.657 195.944 320.657C195.842 320.657 195.655 319.433 195.978 317.767C196.658 314.248 198.273 308.774 198.256 308.587C198.256 308.485 198.562 307.532 197.202 307.039C195.876 306.546 195.4 307.362 195.281 307.362C195.162 307.362 195.077 307.651 195.077 307.651C195.077 307.651 196.556 301.497 192.254 301.497C189.568 301.497 185.862 304.438 184.026 307.09C182.87 307.719 180.405 309.063 177.77 310.508C176.767 311.069 175.73 311.63 174.761 312.157C174.693 312.089 174.625 312.004 174.557 311.936C169.355 306.376 159.732 302.449 160.14 294.986C160.293 292.266 161.228 285.126 178.62 276.455C192.934 269.4 204.325 271.355 206.297 275.69C209.119 281.879 200.194 293.371 185.403 295.037C179.759 295.666 176.801 293.49 176.053 292.674C175.271 291.824 175.152 291.773 174.863 291.943C174.387 292.198 174.693 292.963 174.863 293.405C175.305 294.561 177.124 296.601 180.201 297.604C182.921 298.488 189.534 298.981 197.542 295.887C206.501 292.419 213.505 282.78 211.448 274.704C209.391 266.51 195.791 263.807 182.921 268.38C175.271 271.1 166.975 275.384 161.007 280.961C153.918 287.591 152.796 293.354 153.255 295.768C154.904 304.336 166.72 309.913 171.446 314.044C171.208 314.18 170.987 314.299 170.8 314.401C168.437 315.574 159.426 320.283 157.182 325.264C154.632 330.908 157.59 334.954 159.545 335.498C165.614 337.182 171.854 334.155 175.203 329.157C178.552 324.159 178.144 317.665 176.597 314.69C176.58 314.656 176.563 314.622 176.529 314.588C177.141 314.231 177.77 313.857 178.382 313.5C179.589 312.786 180.779 312.123 181.799 311.579C181.221 313.16 180.796 315.047 180.592 317.767C180.337 320.963 181.646 325.111 183.363 326.743C184.128 327.457 185.029 327.474 185.607 327.474C187.613 327.474 188.514 325.808 189.517 323.836C190.741 321.422 191.846 318.617 191.846 318.617C191.846 318.617 190.469 326.199 194.209 326.199C195.57 326.199 196.947 324.431 197.559 323.53V323.547C197.559 323.547 197.593 323.496 197.661 323.377C197.797 323.156 197.882 323.02 197.882 323.02V322.986C198.426 322.034 199.65 319.875 201.469 316.288C203.815 311.664 206.076 305.883 206.076 305.883C206.076 305.883 206.28 307.294 206.977 309.641C207.385 311.018 208.235 312.531 208.915 313.993C208.371 314.758 208.031 315.183 208.031 315.183C208.031 315.183 208.031 315.183 208.048 315.2C207.606 315.778 207.13 316.407 206.603 317.019C204.75 319.229 202.54 321.762 202.234 322.493C201.877 323.36 201.962 323.989 202.642 324.499C203.135 324.873 204.019 324.924 204.92 324.873C206.586 324.754 207.759 324.346 208.337 324.091C209.238 323.768 210.292 323.275 211.278 322.544C213.097 321.201 214.202 319.28 214.1 316.747C214.049 315.353 213.59 313.959 213.029 312.65C213.199 312.412 213.352 312.174 213.522 311.936C216.395 307.736 218.622 303.129 218.622 303.129C218.622 303.129 218.826 304.54 219.523 306.886C219.863 308.077 220.56 309.369 221.172 310.627C218.469 312.82 216.803 315.37 216.208 317.036C215.137 320.13 215.97 321.524 217.551 321.847C218.265 322 219.285 321.66 220.033 321.337C220.985 321.031 222.107 320.504 223.179 319.722C224.998 318.379 226.749 316.509 226.647 313.976C226.596 312.82 226.29 311.681 225.865 310.576C228.16 309.624 231.118 309.097 234.892 309.539C242.984 310.491 244.582 315.54 244.276 317.665C243.97 319.79 242.27 320.946 241.709 321.303C241.148 321.66 240.961 321.779 241.012 322.034C241.08 322.408 241.352 322.391 241.828 322.323C242.491 322.204 246.078 320.606 246.231 316.696C246.486 311.698 241.726 306.24 233.311 306.291ZM170.885 327.338C168.199 330.262 164.458 331.367 162.843 330.432C161.109 329.429 161.789 325.111 165.087 322.017C167.094 320.13 169.678 318.379 171.395 317.308C171.786 317.07 172.364 316.73 173.061 316.305C173.18 316.237 173.248 316.203 173.248 316.203C173.384 316.118 173.52 316.033 173.656 315.948C174.863 320.368 173.707 324.261 170.885 327.338ZM190.435 314.044C189.5 316.322 187.545 322.153 186.355 321.83C185.335 321.558 184.706 317.138 186.151 312.769C186.882 310.576 188.429 307.958 189.33 306.937C190.792 305.305 192.407 304.761 192.798 305.424C193.291 306.291 191.013 312.616 190.435 314.044ZM206.569 321.762C206.178 321.966 205.804 322.102 205.634 322C205.515 321.932 205.804 321.66 205.804 321.66C205.804 321.66 207.827 319.484 208.626 318.498C209.085 317.92 209.629 317.24 210.207 316.475V316.696C210.207 319.297 207.691 321.048 206.569 321.762ZM219.013 318.923C218.724 318.719 218.775 318.039 219.744 315.914C220.118 315.081 221.002 313.687 222.515 312.344C222.686 312.888 222.805 313.415 222.788 313.908C222.771 317.189 220.424 318.413 219.013 318.923Z" fill="#CD6799"/>
</g>
<path d="M278 301C278 317.568 303.534 331 335.03 331C366.526 331 392.06 317.568 392.06 301C392.06 284.432 366.526 271 335.03 271C303.534 271 278 284.432 278 301Z" fill="url(#paint0_radial)"/>
<path d="M335.03 328.773C365.296 328.773 389.832 316.338 389.832 301C389.832 285.662 365.296 273.227 335.03 273.227C304.764 273.227 280.228 285.662 280.228 301C280.228 316.338 304.764 328.773 335.03 328.773Z" fill="#777BB3"/>
<path d="M308.985 304.443C311.474 304.443 313.332 303.985 314.507 303.08C315.67 302.184 316.473 300.633 316.894 298.469C317.287 296.446 317.137 295.034 316.45 294.272C315.747 293.493 314.228 293.099 311.934 293.099H307.957L305.752 304.443H308.985ZM295.977 318.418C295.792 318.418 295.617 318.336 295.499 318.193C295.382 318.051 295.334 317.863 295.37 317.682L301.213 287.617C301.269 287.327 301.524 287.117 301.82 287.117H314.414C318.372 287.117 321.318 288.191 323.17 290.311C325.031 292.442 325.606 295.421 324.878 299.165C324.582 300.69 324.073 302.106 323.364 303.374C322.655 304.644 321.717 305.819 320.577 306.867C319.212 308.144 317.668 309.07 315.99 309.615C314.34 310.153 312.219 310.425 309.689 310.425H304.59L303.133 317.918C303.077 318.208 302.822 318.418 302.526 318.418H295.977Z" fill="black"/>
<path d="M308.467 293.717H311.934C314.703 293.717 315.664 294.325 315.991 294.687C316.533 295.288 316.635 296.555 316.287 298.352C315.895 300.363 315.17 301.789 314.13 302.589C313.065 303.409 311.334 303.825 308.985 303.825H306.503L308.467 293.717ZM314.414 286.498H301.82C301.228 286.498 300.719 286.918 300.605 287.499L294.762 317.564C294.692 317.926 294.787 318.302 295.022 318.587C295.257 318.872 295.607 319.037 295.977 319.037H302.526C303.119 319.037 303.628 318.617 303.741 318.036L305.1 311.044H309.689C312.285 311.044 314.469 310.761 316.183 310.203C317.944 309.631 319.565 308.66 321 307.319C322.186 306.227 323.164 305.002 323.904 303.677C324.645 302.351 325.177 300.872 325.486 299.282C326.252 295.342 325.63 292.186 323.636 289.904C321.661 287.644 318.559 286.498 314.414 286.498ZM305.001 305.062H308.985C311.626 305.062 313.592 304.565 314.885 303.57C316.177 302.575 317.049 300.914 317.502 298.587C317.935 296.353 317.738 294.776 316.91 293.858C316.08 292.939 314.422 292.48 311.934 292.48H307.447L305.001 305.062ZM314.414 287.735C318.203 287.735 320.967 288.73 322.704 290.718C324.441 292.707 324.964 295.483 324.271 299.047C323.986 300.515 323.503 301.857 322.824 303.073C322.144 304.29 321.256 305.402 320.158 306.411C318.851 307.635 317.398 308.507 315.799 309.026C314.201 309.547 312.165 309.806 309.689 309.806H304.08L302.526 317.8H295.977L301.82 287.735H314.414Z" fill="white"/>
<path d="M339.895 310.425C339.71 310.425 339.535 310.343 339.417 310.2C339.299 310.057 339.252 309.87 339.287 309.688L341.872 296.386C342.118 295.121 342.057 294.213 341.701 293.829C341.483 293.595 340.829 293.201 338.895 293.201H334.212L330.962 309.924C330.905 310.215 330.651 310.425 330.354 310.425H323.857C323.672 310.425 323.497 310.343 323.379 310.2C323.262 310.057 323.214 309.87 323.249 309.688L329.093 279.624C329.149 279.333 329.404 279.123 329.7 279.123H336.198C336.383 279.123 336.558 279.206 336.675 279.348C336.793 279.491 336.84 279.679 336.805 279.86L335.395 287.116H340.433C344.27 287.116 346.873 287.793 348.388 289.185C349.933 290.605 350.415 292.875 349.821 295.934L347.103 309.924C347.046 310.215 346.792 310.425 346.495 310.425H339.895Z" fill="black"/>
<path d="M336.198 278.505H329.7C329.108 278.505 328.598 278.924 328.485 279.506L322.642 309.57C322.571 309.933 322.667 310.308 322.902 310.594C323.137 310.879 323.487 311.044 323.857 311.044H330.355C330.947 311.044 331.456 310.624 331.569 310.042L334.722 293.82H338.895C340.826 293.82 341.231 294.233 341.248 294.251C341.365 294.377 341.519 294.96 341.264 296.268L338.68 309.57C338.609 309.933 338.704 310.308 338.94 310.594C339.175 310.879 339.525 311.044 339.895 311.044H346.495C347.088 311.044 347.597 310.624 347.71 310.042L350.429 296.052C351.067 292.768 350.521 290.305 348.807 288.729C347.172 287.228 344.433 286.498 340.433 286.498H336.146L337.413 279.978C337.483 279.616 337.388 279.24 337.153 278.955C336.918 278.67 336.567 278.505 336.198 278.505ZM336.198 279.742L334.644 287.735H340.433C344.075 287.735 346.587 288.371 347.97 289.641C349.352 290.911 349.767 292.97 349.214 295.816L346.495 309.806H339.895L342.479 296.504C342.774 294.991 342.665 293.959 342.155 293.409C341.644 292.858 340.557 292.583 338.895 292.583H333.702L330.355 309.806H323.857L329.7 279.742H336.198Z" fill="white"/>
<path d="M360.102 304.443C362.591 304.443 364.449 303.985 365.625 303.08C366.788 302.185 367.591 300.633 368.012 298.469C368.404 296.446 368.255 295.034 367.567 294.272C366.865 293.493 365.345 293.099 363.052 293.099H359.074L356.87 304.443H360.102ZM347.095 318.418C346.91 318.418 346.735 318.336 346.617 318.193C346.5 318.051 346.452 317.863 346.487 317.682L352.33 287.617C352.387 287.327 352.642 287.117 352.938 287.117H365.532C369.49 287.117 372.435 288.191 374.287 290.311C376.149 292.442 376.724 295.421 375.996 299.165C375.699 300.69 375.19 302.106 374.481 303.374C373.772 304.644 372.835 305.819 371.695 306.867C370.33 308.144 368.785 309.07 367.108 309.615C365.457 310.153 363.337 310.425 360.807 310.425H355.707L354.251 317.918C354.195 318.208 353.94 318.418 353.644 318.418H347.095Z" fill="black"/>
<path d="M359.584 293.717H363.051C365.82 293.717 366.781 294.325 367.108 294.687C367.65 295.288 367.753 296.555 367.404 298.351C367.013 300.363 366.287 301.789 365.247 302.589C364.182 303.409 362.451 303.825 360.102 303.825H357.62L359.584 293.717ZM365.531 286.498H352.938C352.345 286.498 351.836 286.918 351.723 287.499L345.88 317.564C345.809 317.926 345.904 318.302 346.139 318.587C346.375 318.872 346.725 319.037 347.094 319.037H353.644C354.236 319.037 354.745 318.617 354.859 318.036L356.217 311.044H360.807C363.402 311.044 365.587 310.761 367.3 310.203C369.062 309.631 370.683 308.66 372.118 307.318C373.304 306.227 374.281 305.002 375.021 303.677C375.762 302.351 376.294 300.872 376.603 299.282C377.369 295.342 376.747 292.186 374.753 289.904C372.779 287.644 369.676 286.498 365.531 286.498ZM356.119 305.062H360.102C362.743 305.062 364.71 304.565 366.002 303.57C367.295 302.575 368.166 300.914 368.619 298.587C369.053 296.353 368.855 294.776 368.027 293.858C367.198 292.939 365.539 292.48 363.051 292.48H358.564L356.119 305.062ZM365.531 287.735C369.32 287.735 372.084 288.73 373.821 290.718C375.558 292.707 376.081 295.483 375.388 299.047C375.103 300.515 374.62 301.857 373.941 303.073C373.261 304.29 372.373 305.402 371.276 306.411C369.968 307.635 368.515 308.507 366.917 309.026C365.318 309.547 363.282 309.806 360.807 309.806H355.197L353.644 317.8H347.094L352.938 287.735H365.531Z" fill="white"/>
<defs>
<radialGradient id="paint0_radial" cx="0" cy="0" r="1" gradientUnits="userSpaceOnUse" gradientTransform="translate(312.241 281.547) scale(74.8887)">
<stop stop-color="#AEB2D5"/>
<stop offset="0.3" stop-color="#AEB2D5"/>
<stop offset="0.75" stop-color="#484C89"/>
<stop offset="1" stop-color="#484C89"/>
</radialGradient>
<clipPath id="clip0">
<rect x="153" y="266" width="93.3333" height="70" fill="white"/>
</clipPath>
</defs>
</svg>
