<svg width="50" height="50" viewBox="0 0 50 50" fill="none" xmlns="http://www.w3.org/2000/svg">
<g clip-path="url(#clip0)">
<path d="M7.41378 26.1465H5.01723C4.60485 26.1473 4.25075 26.44 4.1724 26.8448L0.396536 46.2242C0.298563 46.7304 0.43231 47.2539 0.761093 47.6511C1.08988 48.0483 1.57918 48.2775 2.09481 48.2759H20.6896C20.6896 49.2242 22.6207 50 25 50C27.3793 50 29.3103 49.2242 29.3103 48.2759H47.9052C48.4208 48.2775 48.9101 48.0483 49.2389 47.6511C49.5677 47.2539 49.7014 46.7304 49.6034 46.2242L45.8276 26.8448C45.7492 26.44 45.3951 26.1473 44.9827 26.1465H7.41378Z" fill="#E64C3C"/>
<path d="M25 28.6552V44.8276C23.7387 44.2798 22.4243 43.8638 21.0775 43.5862C15.9583 42.4733 10.635 42.744 5.65513 44.3707C5.36889 44.458 5.05786 44.3919 4.83188 44.1957C4.6059 43.9995 4.49678 43.7009 4.54306 43.4052L7.41375 26.1466L7.65513 24.6897C7.71691 24.32 8.00882 24.0315 8.37927 23.9742C8.96547 23.888 9.56892 23.8018 10.1724 23.7328C11.2258 25.7805 13.3351 27.0681 15.6379 27.069C15.7931 27.069 15.9396 27.0604 16.0862 27.0518C16.6602 27.007 17.2256 26.8852 17.7672 26.6897C17.769 26.708 17.7749 26.7257 17.7844 26.7414C18.4295 28.548 20.142 29.753 22.0603 29.75C23.1405 29.7536 24.1852 29.3645 25 28.6552V28.6552Z" fill="#F5EFCA"/>
<path d="M44.3448 44.3707C39.3649 42.7441 34.0416 42.4733 28.9224 43.5862C27.5757 43.8638 26.2612 44.2798 25 44.8276V28.6552C25.1813 28.507 25.3487 28.3425 25.5 28.1638C26.3613 28.5064 27.28 28.6819 28.2069 28.6811H28.2586C28.3034 29.2975 28.5383 29.8848 28.931 30.3621C29.7678 31.1893 30.8137 31.7733 31.9569 32.0517C32.7864 32.3166 33.5264 32.8059 34.0948 33.4655C34.6016 34.0933 35.4602 34.3141 36.2069 34.0086C36.8642 33.7247 37.2908 33.0781 37.2931 32.3621C37.294 32.1748 37.2649 31.9885 37.2069 31.8104C37.1207 31.5431 37.0259 31.2759 36.9138 31.0173C36.6976 30.4831 36.4137 29.979 36.069 29.5173C37.7787 28.5926 38.9794 26.9452 39.3362 25.0345C39.3621 25 39.3966 24.9655 39.4224 24.9311C39.7174 24.584 39.9586 24.1946 40.1379 23.7759C40.6379 23.8362 41.1293 23.8966 41.6207 23.9742C41.9911 24.0315 42.283 24.3199 42.3448 24.6897L42.5862 26.1466L45.4569 43.4052C45.5032 43.7009 45.3941 43.9995 45.1681 44.1957C44.9421 44.3919 44.6311 44.458 44.3448 44.3707V44.3707Z" fill="#F9EAB0"/>
<path d="M29.3102 48.2759C29.3102 49.2242 27.3792 50 24.9999 50C22.6206 50 20.6896 49.2242 20.6896 48.2759L21.0775 43.5862C22.4242 43.8638 23.7387 44.2798 24.9999 44.8276C26.2611 44.2798 27.5756 43.8638 28.9223 43.5862L29.3102 48.2759Z" fill="#C03A2B"/>
<path d="M40.5172 21.9742C40.5164 22.5945 40.3873 23.2079 40.1379 23.7759C39.9586 24.1946 39.7174 24.584 39.4224 24.9311C39.3965 24.9655 39.362 25 39.3362 25.0345C38.9793 26.9452 37.7787 28.5926 36.0689 29.5173C36.4136 29.979 36.6976 30.4831 36.9138 31.0173C37.0258 31.2759 37.1207 31.5431 37.2069 31.8104C37.2649 31.9885 37.294 32.1748 37.2931 32.3621C37.2907 33.0781 36.8642 33.7247 36.2069 34.0086C35.4602 34.3141 34.6015 34.0933 34.0948 33.4655C33.5263 32.8059 32.7864 32.3166 31.9569 32.0517C30.8137 31.7733 29.7677 31.1893 28.931 30.3621C28.5383 29.8848 28.3034 29.2975 28.2586 28.6811H28.2069C27.2799 28.6819 26.3613 28.5064 25.5 28.1638C25.3486 28.3425 25.1813 28.507 25 28.6552C24.1852 29.3645 23.1405 29.7536 22.0603 29.75C20.142 29.753 18.4295 28.548 17.7844 26.7414C17.7749 26.7257 17.769 26.708 17.7672 26.6897C17.2256 26.8852 16.6602 27.007 16.0862 27.0517C15.9396 27.0604 15.7931 27.069 15.6379 27.069C13.308 27.0674 11.1783 25.7512 10.1349 23.668C9.09146 21.5847 9.3128 19.091 10.7069 17.2242C10.6032 16.9426 10.5506 16.6449 10.5517 16.3448C10.5465 15.0708 11.4413 13.9703 12.6896 13.7155C12.6943 13.7109 12.7003 13.7078 12.7069 13.7069C12.6982 13.6035 12.6896 13.5 12.6896 13.3879C12.6885 12.9098 12.7883 12.4369 12.9827 12C13.5328 10.7279 14.7864 9.90454 16.1724 9.90519C16.6951 9.9027 17.2113 10.0207 17.681 10.25C18.5988 8.70485 20.2631 7.75799 22.0603 7.75864C23.2934 7.75416 24.4846 8.20548 25.4051 9.02588C25.9336 8.17346 26.8948 7.68869 27.8944 7.77047C28.894 7.85226 29.7637 8.48683 30.1465 9.41381C30.3927 9.38632 30.6402 9.37193 30.8879 9.37071C34.2281 9.37624 37.0077 11.9386 37.2844 15.2673H37.3103C38.0206 15.2673 38.7016 15.55 39.203 16.053C39.7045 16.5561 39.985 17.238 39.9827 17.9483C39.9811 18.4128 39.8625 18.8693 39.6379 19.2759C40.21 20.0592 40.5179 21.0042 40.5172 21.9742V21.9742Z" fill="#FB7B76"/>
<path d="M25 2.58621C24.5239 2.58621 24.1379 2.20025 24.1379 1.72414V0.862069C24.1379 0.385961 24.5239 0 25 0C25.4761 0 25.8621 0.385961 25.8621 0.862069V1.72414C25.8621 2.20025 25.4761 2.58621 25 2.58621Z" fill="#F0C419"/>
<path d="M38.8939 8.51979C38.5453 8.51972 38.231 8.30968 38.0976 7.9876C37.9642 7.66551 38.0379 7.29479 38.2844 7.04824L39.1465 6.18617C39.3629 5.96207 39.6834 5.8722 39.9848 5.95109C40.2863 6.02998 40.5216 6.26537 40.6005 6.56677C40.6794 6.86818 40.5895 7.1887 40.3654 7.40514L39.5034 8.26721C39.3417 8.42889 39.1225 8.51974 38.8939 8.51979V8.51979Z" fill="#F0C419"/>
<path d="M11.106 8.51979C10.8774 8.51974 10.6581 8.42889 10.4965 8.26721L9.63442 7.40514C9.41032 7.1887 9.32044 6.86818 9.39933 6.56677C9.47823 6.26537 9.71361 6.02998 10.015 5.95109C10.3164 5.8722 10.6369 5.96207 10.8534 6.18617L11.7155 7.04824C11.9619 7.29479 12.0356 7.66551 11.9022 7.9876C11.7688 8.30968 11.4546 8.51972 11.106 8.51979Z" fill="#F0C419"/>
<path d="M17.7422 4.89222C17.3935 4.89231 17.0791 4.68238 16.9456 4.36032L15.956 1.97067C15.8301 1.68474 15.8688 1.35311 16.0571 1.10384C16.2454 0.854572 16.5538 0.726668 16.8633 0.769518C17.1727 0.812368 17.4347 1.01927 17.5482 1.31032L18.5387 3.69998C18.6266 3.91133 18.6268 4.14896 18.5394 4.36048C18.4519 4.572 18.2838 4.74004 18.0723 4.82756C17.9675 4.87029 17.8554 4.89225 17.7422 4.89222V4.89222Z" fill="#F0C419"/>
<path d="M32.2577 4.89222C32.1445 4.89198 32.0323 4.86972 31.9275 4.8267C31.7162 4.73918 31.5484 4.57128 31.4609 4.35996C31.3735 4.14864 31.3735 3.91123 31.4612 3.69998L32.4517 1.31032C32.5651 1.01927 32.8272 0.812368 33.1366 0.769518C33.4461 0.726668 33.7545 0.854572 33.9428 1.10384C34.1311 1.35311 34.1698 1.68474 34.0439 1.97067L33.0543 4.36032C32.9207 4.68238 32.6064 4.89231 32.2577 4.89222V4.89222Z" fill="#F0C419"/>
<path d="M42.5215 15.1569C42.1093 15.1581 41.7538 14.8674 41.6734 14.4631C41.593 14.0587 41.81 13.654 42.1913 13.4974L44.581 12.5078C44.8656 12.39 45.1914 12.4329 45.4357 12.6205C45.68 12.808 45.8057 13.1117 45.7655 13.417C45.7252 13.7224 45.5251 13.9831 45.2405 14.1009L42.8517 15.0905C42.7471 15.1341 42.6349 15.1567 42.5215 15.1569Z" fill="#F0C419"/>
<path d="M7.47839 15.1569C7.36504 15.1567 7.25285 15.1341 7.14822 15.0905L4.75943 14.1009C4.47485 13.9831 4.27473 13.7224 4.23447 13.417C4.1942 13.1117 4.31989 12.808 4.56421 12.6205C4.80852 12.4329 5.13433 12.39 5.41891 12.5078L7.80857 13.4974C8.18989 13.6541 8.40696 14.0587 8.32652 14.4631C8.24607 14.8674 7.89064 15.1582 7.47839 15.1569V15.1569Z" fill="#F0C419"/>
<path d="M39.4225 24.931C39.3966 24.9655 39.3621 25 39.3363 25.0345C39.1844 25.8647 38.8678 26.6561 38.4052 27.3621C37.9538 27.4902 37.4865 27.554 37.0173 27.5517C36.163 27.5493 35.3212 27.3455 34.5604 26.9569C34.2002 26.7642 33.8621 26.5329 33.5518 26.2672C33.2079 26.4004 32.8429 26.4705 32.4742 26.4741C31.3355 26.48 30.2924 25.8381 29.7845 24.819C29.6459 24.5433 29.6649 24.2147 29.8344 23.9568C30.0038 23.699 30.2979 23.5511 30.6059 23.5689C30.9139 23.5867 31.189 23.7674 31.3276 24.0431C31.4979 24.3699 31.7995 24.6086 32.1568 24.6992C32.514 24.7897 32.8929 24.7235 33.1983 24.5172C33.5431 24.2819 33.7496 23.8916 33.7501 23.4741C33.7513 23.2743 33.7071 23.0768 33.6207 22.8965C33.4472 22.4797 33.6246 21.9996 34.0276 21.7958C34.4305 21.5921 34.9224 21.7338 35.1552 22.1207C35.3648 22.5411 35.474 23.0044 35.4742 23.4741C35.4672 24.0765 35.2779 24.6626 34.9311 25.1552C35.069 25.25 35.2069 25.3448 35.3449 25.4224C35.8622 25.6887 36.4355 25.8276 37.0173 25.8276C37.9016 25.8325 38.7571 25.5136 39.4225 24.931V24.931Z" fill="#FF5364"/>
<path d="M28.8793 21.5465C29.9961 20.7771 30.7641 19.598 31.0164 18.2655C31.0806 17.9604 30.9751 17.6445 30.7405 17.4392C30.5059 17.2339 30.1787 17.1713 29.8849 17.2754C29.5911 17.3795 29.3763 17.6341 29.3233 17.9413C29.1543 18.8305 28.6413 19.617 27.8957 20.1301C26.4615 21.0961 24.5379 20.8769 23.3578 19.6129C23.0367 19.2606 22.4907 19.2353 22.1384 19.5564C21.7861 19.8776 21.7608 20.4235 22.0819 20.7758C22.8132 21.5832 23.7797 22.1405 24.8449 22.3689C24.3619 23.0477 23.5797 23.4501 22.7466 23.4482C22.2705 23.4482 21.8845 23.8342 21.8845 24.3103C21.8845 24.7864 22.2705 25.1724 22.7466 25.1724C24.5312 25.1795 26.1325 24.0773 26.763 22.4077C27.5236 22.2813 28.2466 21.9871 28.8793 21.5465V21.5465Z" fill="#FF5364"/>
<path d="M36.9138 31.0172C36.2801 31.3406 35.5993 31.5617 34.8965 31.6724C34.8509 31.6795 34.8048 31.6824 34.7586 31.681C34.3046 31.6852 33.9251 31.3365 33.891 30.8838C33.8569 30.431 34.1798 30.0294 34.6293 29.9655C35.1291 29.8898 35.6146 29.7387 36.069 29.5172C36.4137 29.9789 36.6976 30.4831 36.9138 31.0172V31.0172Z" fill="#FF5364"/>
<path d="M17.7069 25C17.6634 25.2419 17.6403 25.487 17.6379 25.7328C17.6362 26.0562 17.6797 26.3783 17.7672 26.6897C17.2256 26.8852 16.6602 27.0069 16.0862 27.0517C15.9758 26.6294 15.9179 26.1951 15.9138 25.7586C14.3953 25.593 13.2442 24.312 13.2413 22.7845C13.2385 22.3044 13.6233 21.9118 14.1034 21.9052C14.331 21.9038 14.5497 21.993 14.7115 22.1531C14.8732 22.3132 14.9646 22.5311 14.9655 22.7586V22.7845C14.9784 23.4657 15.5176 24.02 16.1982 24.0517C16.3174 23.6629 16.4824 23.2896 16.6896 22.9397C16.8054 22.742 16.996 22.5994 17.2184 22.5442C17.4407 22.489 17.6759 22.5259 17.8707 22.6465C18.276 22.8971 18.4063 23.426 18.1638 23.8362C17.9449 24.1946 17.7902 24.5884 17.7069 25V25Z" fill="#FF5364"/>
<path d="M30.5259 30.0431C30.0079 30.2088 29.473 30.3158 28.9311 30.3621C28.5384 29.8848 28.3034 29.2975 28.2587 28.681C28.3421 28.6826 28.4255 28.6798 28.5087 28.6724C29.0206 28.6399 29.527 28.5474 30.0173 28.3966C30.3146 28.2946 30.6439 28.3625 30.8766 28.5738C31.1092 28.7852 31.2085 29.1064 31.1355 29.4121C31.0625 29.7179 30.8289 29.9596 30.5259 30.0431V30.0431Z" fill="#FF5364"/>
<path d="M23.1035 14.6552C23.1035 14.1791 22.7175 13.7931 22.2414 13.7931C20.0523 13.7955 18.2783 15.5695 18.2759 17.7586C18.2759 18.2347 18.6618 18.6207 19.1379 18.6207C19.6141 18.6207 20 18.2347 20 17.7586C20 17.1642 20.2362 16.5941 20.6565 16.1737C21.0768 15.7534 21.6469 15.5172 22.2414 15.5172C22.7175 15.5172 23.1035 15.1313 23.1035 14.6552V14.6552Z" fill="#FF5364"/>
<path d="M11.8518 19.5026C11.6952 19.5028 11.5416 19.4598 11.4078 19.3785C10.6969 18.9495 10.1591 18.2848 9.88797 17.5C9.75683 17.1269 9.69007 16.7343 9.69055 16.3388C9.69055 14.3851 11.2713 12.7997 13.225 12.794C14.3445 12.7897 15.3985 13.3213 16.0604 14.2241C16.2441 14.4715 16.2819 14.798 16.1596 15.0808C16.0373 15.3635 15.7734 15.5595 15.4673 15.595C15.1613 15.6304 14.8596 15.4999 14.6759 15.2526C14.338 14.7916 13.8001 14.5199 13.2285 14.5216C12.4125 14.5261 11.6992 15.0728 11.4825 15.8595C11.2659 16.6462 11.5989 17.4809 12.2975 17.9026C12.6296 18.1023 12.7877 18.4992 12.6837 18.8726C12.5797 19.246 12.2394 19.5041 11.8518 19.5035V19.5026Z" fill="#FF5364"/>
<path d="M30.3509 11.3026C29.8748 11.3026 29.4888 10.9166 29.4888 10.4405C29.4888 9.43902 28.6769 8.62715 27.6754 8.62715C26.6739 8.62715 25.8621 9.43902 25.8621 10.4405C25.8621 10.9166 25.4761 11.3026 25 11.3026C24.5239 11.3026 24.1379 10.9166 24.1379 10.4405C24.1379 8.48681 25.7217 6.90302 27.6754 6.90302C29.6292 6.90302 31.2129 8.48681 31.2129 10.4405C31.2129 10.6692 31.1221 10.8884 30.9605 11.0501C30.7988 11.2118 30.5795 11.3026 30.3509 11.3026V11.3026Z" fill="#FF5364"/>
<path d="M38.4372 21.2422C38.0369 21.2383 37.692 20.9594 37.6044 20.5688C37.5169 20.1782 37.7097 19.7787 38.0699 19.6043C38.4135 19.4429 38.6987 19.1791 38.8863 18.8491C39.3249 18.1017 39.1723 17.1484 38.5224 16.5752C37.8725 16.002 36.9075 15.9697 36.2208 16.4982C35.8399 16.7839 35.2996 16.7067 35.0139 16.3258C34.7282 15.9449 34.8054 15.4046 35.1863 15.1189C35.7896 14.6622 36.5245 14.413 37.2811 14.4086C38.9467 14.3973 40.3953 15.5473 40.7621 17.172C41.129 18.7966 40.315 20.4575 38.8061 21.1629C38.6906 21.2166 38.5646 21.2437 38.4372 21.2422V21.2422Z" fill="#FF5364"/>
</g>
<defs>
<clipPath id="clip0">
<rect width="50" height="50" fill="white"/>
</clipPath>
</defs>
</svg>
