<svg width="50" height="50" viewBox="0 0 50 50" fill="none" xmlns="http://www.w3.org/2000/svg">
<path d="M25 50C38.8071 50 50 38.8071 50 25C50 11.1929 38.8071 0 25 0C11.1929 0 0 11.1929 0 25C0 38.8071 11.1929 50 25 50Z" fill="#263740"/>
<path d="M1.52423 33.6141C5.03478 43.177 14.2203 50 25 50C25.2688 50 25.5344 49.9883 25.8012 49.9797C22.2906 40.4168 13.1051 33.5938 2.3254 33.5938C2.05704 33.5938 1.79103 33.6055 1.52423 33.6141Z" fill="#E6E6E6"/>
<path d="M25.8707 15.7793C25.1008 14.8137 22.9398 15.2734 20.4672 16.9277C18.7488 18.1402 15.8852 23.2672 15.5746 24.4629C15.2641 25.6586 17.4894 25.364 17.9656 25.084C18.7191 24.6414 20.8465 21.3652 21.059 21.0383C21.2719 20.7109 22.6797 20.6933 23.7609 20.4637C24.0707 19.268 25.4457 16.4344 25.8707 15.7793Z" fill="#CC584C"/>
<path d="M34.3883 21.3113C35.5844 21.6214 36.0434 23.7828 35.5367 26.7144C35.1274 28.7777 31.6086 33.4792 30.6438 34.2492C29.6774 35.0203 29.0418 32.8667 29.1035 32.3187C29.2016 31.4496 31.3289 28.1746 31.5418 27.8468C31.7547 27.5195 31.1973 26.2261 30.9668 25.1453C31.9332 24.3738 33.9629 21.966 34.3883 21.3113Z" fill="#CC584C"/>
<path d="M42.0441 0.199225C41.0606 -0.439057 34.675 0.0718809 29.7805 7.60665C25.7383 13.8316 23.4324 20.2512 23.3344 21.1191C24.3176 21.7582 26.9383 23.4594 26.9383 23.4594C26.9383 23.4594 29.5594 25.1609 30.5422 25.7992C31.2961 25.357 36.4352 20.3109 40.2656 14.4141C45.1578 6.87852 43.0258 0.837897 42.0441 0.199225Z" fill="#E6E6E6"/>
<path d="M35.6609 13.9336C37.8183 13.9336 39.5672 12.1847 39.5672 10.0273C39.5672 7.86998 37.8183 6.12109 35.6609 6.12109C33.5036 6.12109 31.7547 7.86998 31.7547 10.0273C31.7547 12.1847 33.5036 13.9336 35.6609 13.9336Z" fill="#263740"/>
<path d="M34.384 11.9929C33.3008 11.2883 32.9914 9.83474 33.6945 8.75075C34.3992 7.66677 35.8523 7.35779 36.9375 8.06091C38.0203 8.76521 38.3293 10.2187 37.6266 11.3035C36.9223 12.3879 35.4691 12.6968 34.384 11.9929Z" fill="#C2E2F2"/>
<path d="M39.4906 4.13054C40.6938 4.91179 42.0098 5.38015 43.3434 5.55945C43.4809 2.56023 42.5871 0.552416 42.0441 0.198119C41.4992 -0.154225 39.3016 -0.153443 36.6176 1.19109C37.3238 2.33679 38.2875 3.3489 39.4906 4.13054Z" fill="#CC584C"/>
<path d="M29.9211 28.1903C29.6867 28.5508 29.2004 28.6544 28.8398 28.4204L21.6328 23.7407C21.2723 23.5059 21.1688 23.0196 21.4027 22.6591L22.2543 21.3489C22.4887 20.9887 22.9746 20.8848 23.3356 21.1192L30.5422 25.7997C30.9031 26.0341 31.0063 26.52 30.7727 26.8813L29.9211 28.1903Z" fill="#CC584C"/>
<path d="M24.4492 23.7062C24.2148 24.0676 23.9273 24.5254 23.6273 25.0351L27.1738 27.3383C27.518 26.8566 27.8188 26.4066 28.0535 26.0457C28.2883 25.6847 28.5754 25.2269 28.8754 24.7176L25.3297 22.4144C24.9848 22.8957 24.6832 23.3449 24.4492 23.7062Z" fill="#BF5347"/>
<path d="M22.2879 24.1652C19.7031 28.1448 16.4484 36.2085 18.1672 37.3245C19.8851 38.4406 25.9273 32.1886 28.5125 28.207L22.2879 24.1652Z" fill="#FFD464"/>
<path d="M22.943 24.5906C20.3582 28.5703 19.3629 32.5125 20.7196 33.3933C22.0766 34.2746 25.2723 31.7613 27.8571 27.782L22.943 24.5906Z" fill="#F2B255"/>
<path d="M29.8718 19.3079C29.2385 18.8967 27.1061 21.0567 25.1088 24.1325C23.1116 27.2083 22.0059 30.035 22.6392 30.4462C23.2725 30.8574 25.4049 28.6974 27.4022 25.6216C29.3994 22.5459 30.5051 19.7191 29.8718 19.3079Z" fill="#CC584C"/>
<path d="M9.62125 36.0607C8.42211 35.5733 7.1537 35.9073 6.78819 36.8067C6.42268 37.706 7.09847 38.8302 8.29762 39.3175C9.49677 39.8049 10.7652 39.4709 11.1307 38.5715C11.4962 37.6722 10.8204 36.548 9.62125 36.0607Z" fill="#CCCCCC"/>
<path d="M9.08594 39.3238C7.88672 38.8367 7.21055 37.7125 7.57617 36.8128C7.78516 36.298 8.29492 35.9753 8.91367 35.8793C7.96133 35.7425 7.08789 36.0921 6.79492 36.8128C6.4293 37.7125 7.10547 38.8367 8.30469 39.3238C8.81758 39.532 9.33828 39.582 9.80039 39.5109C9.56328 39.4765 9.32383 39.4207 9.08594 39.3238Z" fill="#B3B3B3"/>
<path d="M16.0448 38.6056C15.4497 37.9999 14.5992 37.8706 14.1451 38.3168C13.691 38.7629 13.8052 39.6156 14.4003 40.2213C14.9954 40.827 15.8459 40.9563 16.3 40.5102C16.7541 40.064 16.6399 39.2113 16.0448 38.6056Z" fill="#CCCCCC"/>
<path d="M14.8637 40.4128C14.2695 39.8077 14.1555 38.955 14.6098 38.5085C14.8692 38.2526 15.2598 38.1917 15.6578 38.2948C15.1203 37.9648 14.5035 37.9464 14.1395 38.3038C13.6852 38.7511 13.7992 39.603 14.3938 40.2085C14.6481 40.4675 14.9492 40.6339 15.2461 40.7105C15.1117 40.6296 14.982 40.5335 14.8637 40.4128Z" fill="#B3B3B3"/>
<path d="M14.8944 42.0124C13.6553 41.6625 12.4381 42.1322 12.1756 43.0615C11.9131 43.9908 12.7049 45.0279 13.944 45.3778C15.1831 45.7278 16.4003 45.2581 16.6628 44.3288C16.9252 43.3995 16.1335 42.3624 14.8944 42.0124Z" fill="#CCCCCC"/>
<path d="M14.7308 45.2954C13.4929 44.9454 12.7015 43.9079 12.9648 42.9786C13.114 42.4465 13.5828 42.0731 14.184 41.9098C13.2281 41.8793 12.4019 42.32 12.1914 43.0645C11.9285 43.9934 12.7203 45.0313 13.959 45.3809C14.4886 45.5309 15.009 45.5227 15.4586 45.402C15.2215 45.3942 14.9773 45.3653 14.7308 45.2954Z" fill="#B3B3B3"/>
<path d="M10.9192 8.20312C10.9192 9.76562 10.5285 10.1562 8.96603 10.1562C10.5285 10.1562 10.9192 10.5469 10.9192 12.1094C10.9192 10.5469 11.3098 10.1562 12.8723 10.1562C11.3098 10.1562 10.9192 9.76562 10.9192 8.20312Z" fill="#FFD464"/>
<path d="M5.84103 19.5312C5.84103 21.0938 5.45041 21.4844 3.88791 21.4844C5.45041 21.4844 5.84103 21.875 5.84103 23.4375C5.84103 21.875 6.23166 21.4844 7.79416 21.4844C6.23166 21.4844 5.84103 21.0938 5.84103 19.5312Z" fill="#FFD464"/>
<path d="M11.3098 26.5625C11.3098 28.125 10.9192 28.5156 9.35666 28.5156C10.9192 28.5156 11.3098 28.9062 11.3098 30.4688C11.3098 28.9062 11.7004 28.5156 13.2629 28.5156C11.7004 28.5156 11.3098 28.125 11.3098 26.5625Z" fill="#FFD464"/>
<path d="M32.0129 39.4531C32.0129 41.0156 31.6223 41.4062 30.0598 41.4062C31.6223 41.4062 32.0129 41.7969 32.0129 43.3594C32.0129 41.7969 32.4035 41.4062 33.966 41.4062C32.4035 41.4062 32.0129 41.0156 32.0129 39.4531Z" fill="#FFD464"/>
<path d="M46.0754 30.4688C46.0754 32.0312 45.6848 32.4219 44.1223 32.4219C45.6848 32.4219 46.0754 32.8125 46.0754 34.375C46.0754 32.8125 46.466 32.4219 48.0285 32.4219C46.466 32.4219 46.0754 32.0312 46.0754 30.4688Z" fill="#FFD464"/>
<path d="M44.9035 16.7969C44.9035 18.3594 44.5129 18.75 42.9504 18.75C44.5129 18.75 44.9035 19.1406 44.9035 20.7031C44.9035 19.1406 45.2942 18.75 46.8567 18.75C45.2942 18.75 44.9035 18.3594 44.9035 16.7969Z" fill="#FFD464"/>
<path d="M25.3723 2.73438C25.3723 4.29688 24.9817 4.6875 23.4192 4.6875C24.9817 4.6875 25.3723 5.07812 25.3723 6.64062C25.3723 5.07812 25.7629 4.6875 27.3254 4.6875C25.7629 4.6875 25.3723 4.29688 25.3723 2.73438Z" fill="#FFD464"/>
<path d="M18.7317 10.9375C18.7317 12.5 18.341 12.8906 16.7785 12.8906C18.341 12.8906 18.7317 13.2812 18.7317 14.8438C18.7317 13.2812 19.1223 12.8906 20.6848 12.8906C19.1223 12.8906 18.7317 12.5 18.7317 10.9375Z" fill="#FFD464"/>
</svg>
