<svg width="50" height="50" viewBox="0 0 50 50" fill="none" xmlns="http://www.w3.org/2000/svg">
<g clip-path="url(#clip0)">
<path d="M24.9999 49.9999C38.807 49.9999 49.9999 38.807 49.9999 24.9999C49.9999 11.1929 38.807 0 24.9999 0C11.1929 0 0 11.1929 0 24.9999C0 38.807 11.1929 49.9999 24.9999 49.9999Z" fill="#FEE565"/>
<path d="M7.76771 24.9999C7.76771 12.514 16.9231 2.16616 28.8856 0.30016C27.6198 0.102713 26.3212 0 24.9999 0C11.1929 0 0 11.1929 0 24.9999C0 38.807 11.1929 49.9999 24.9999 49.9999C26.3211 49.9999 27.6205 49.8971 28.8863 49.6996C16.9238 47.8336 7.76771 37.486 7.76771 24.9999V24.9999Z" fill="#FDD62F"/>
<path d="M25 37.0841C22.8173 37.0841 20.7241 36.4213 18.9465 35.1672C17.209 33.9415 15.8975 32.2455 15.1535 30.2625C15.0065 29.8708 15.2049 29.4341 15.5966 29.2872C15.9881 29.1402 16.4249 29.3385 16.5718 29.7304C17.8821 33.2229 21.2691 35.5693 25 35.5693C28.7309 35.5693 32.1179 33.2229 33.4281 29.7304C33.575 29.3387 34.0118 29.1402 34.4033 29.2872C34.795 29.4342 34.9934 29.8708 34.8465 30.2625C34.1026 32.2455 32.7909 33.9416 31.0535 35.1672C29.2759 36.4213 27.1826 37.0841 25 37.0841V37.0841Z" fill="#685E67"/>
<path d="M19.7456 22.1867C19.3273 22.1867 18.9881 21.8476 18.9881 21.4292C18.9881 19.7419 17.6154 18.3693 15.928 18.3693C14.2407 18.3693 12.868 19.742 12.868 21.4292C12.868 21.8476 12.5288 22.1867 12.1105 22.1867C11.6922 22.1867 11.353 21.8476 11.353 21.4292C11.353 18.9065 13.4054 16.8543 15.928 16.8543C18.4507 16.8543 20.5031 18.9067 20.5031 21.4292C20.5031 21.8476 20.164 22.1867 19.7456 22.1867Z" fill="#685E67"/>
<path d="M37.9903 22.1867C37.572 22.1867 37.2329 21.8476 37.2329 21.4292C37.2329 19.7419 35.8601 18.3693 34.1728 18.3693C32.4855 18.3693 31.1127 19.742 31.1127 21.4292C31.1127 21.8476 30.7736 22.1867 30.3552 22.1867C29.9369 22.1867 29.5978 21.8476 29.5978 21.4292C29.5978 18.9065 31.6501 16.8543 34.1728 16.8543C36.6955 16.8543 38.7478 18.9067 38.7478 21.4292C38.7478 21.8476 38.4087 22.1867 37.9903 22.1867Z" fill="#685E67"/>
<path d="M4.31164 29.0876C4.22953 29.0876 4.14601 29.0742 4.064 29.0458C3.6686 28.909 3.45903 28.4777 3.59578 28.0823L4.7126 24.8534C4.84934 24.458 5.2807 24.2485 5.6761 24.3852C6.0715 24.522 6.28106 24.9533 6.14432 25.3487L5.0275 28.5776C4.91903 28.8909 4.62564 29.0876 4.31164 29.0876Z" fill="#F37E7F"/>
<path d="M7.81823 29.0876C7.73612 29.0876 7.6526 29.0742 7.57059 29.0458C7.17519 28.909 6.96563 28.4777 7.10237 28.0823L8.21919 24.8534C8.35593 24.458 8.78719 24.2485 9.18269 24.3852C9.57809 24.522 9.78765 24.9533 9.6509 25.3487L8.53409 28.5776C8.42562 28.8909 8.13213 29.0876 7.81823 29.0876Z" fill="#F37E7F"/>
<path d="M41.166 29.0876C41.0839 29.0876 41.0004 29.0742 40.9184 29.0458C40.523 28.909 40.3134 28.4777 40.4502 28.0823L41.567 24.8534C41.7037 24.458 42.1351 24.2485 42.5305 24.3852C42.9259 24.522 43.1354 24.9533 42.9987 25.3487L41.8819 28.5776C41.7734 28.8909 41.4799 29.0876 41.166 29.0876Z" fill="#F37E7F"/>
<path d="M44.6726 29.0876C44.5905 29.0876 44.507 29.0742 44.425 29.0458C44.0296 28.909 43.82 28.4777 43.9567 28.0823L45.0736 24.8534C45.2103 24.458 45.6418 24.2485 46.037 24.3852C46.4324 24.522 46.642 24.9533 46.5053 25.3487L45.3885 28.5776C45.28 28.8909 44.9865 29.0876 44.6726 29.0876Z" fill="#F37E7F"/>
</g>
<defs>
<clipPath id="clip0">
<rect width="50" height="50" fill="white"/>
</clipPath>
</defs>
</svg>
