<svg width="50" height="50" viewBox="0 0 50 50" fill="none" xmlns="http://www.w3.org/2000/svg">
<g clip-path="url(#clip0)">
<path d="M36.2194 31.96L18.2483 13.9891C17.9433 13.684 17.4487 13.684 17.1436 13.9891L14.1974 16.9351C14.0509 17.0815 13.9686 17.2803 13.9686 17.4874C13.9686 17.6945 14.051 17.8934 14.1974 18.0398L32.1685 36.0109C32.315 36.1575 32.5137 36.2397 32.7208 36.2397C32.9279 36.2397 33.1268 36.1574 33.2732 36.0109L36.2192 33.0647C36.5244 32.7597 36.5244 32.2651 36.2194 31.96Z" fill="#CDD4D5"/>
<path d="M20.8997 7.21311L14.1237 0.437122C13.8186 0.132043 13.324 0.132043 13.0189 0.437122L10.073 3.38312C9.76794 3.6882 9.76794 4.18283 10.073 4.48781L15.1181 9.53294L9.74157 14.9095L4.69635 9.86458C4.39127 9.5595 3.89664 9.5595 3.59166 9.86458L0.645557 12.8106C0.340478 13.1157 0.340478 13.6103 0.645557 13.9153L7.42155 20.6913C7.56872 20.8384 7.76764 20.9201 7.97389 20.9201C7.99743 20.9201 8.02106 20.919 8.04469 20.9169L14.5262 20.3276C14.7081 20.311 14.8785 20.2312 15.0078 20.102L20.3107 14.7991C20.44 14.6698 20.5198 14.4994 20.5363 14.3174L21.1256 7.83596C21.1464 7.6052 21.0637 7.37688 20.8997 7.21311Z" fill="#CDD4D5"/>
<path d="M16.3254 7.47431C16.1255 7.47431 15.9255 7.39804 15.7731 7.2455L13.6899 5.1623C13.3848 4.85722 13.3848 4.36259 13.6899 4.05761C13.9949 3.75253 14.4896 3.75253 14.7946 4.05761L16.8778 6.14081C17.1829 6.44589 17.1829 6.94052 16.8778 7.2455C16.7252 7.39804 16.5253 7.47431 16.3254 7.47431Z" fill="white"/>
<path d="M49.7713 36.0846L42.9953 29.3086C42.8314 29.1447 42.6031 29.0621 42.3723 29.083L35.8908 29.6723C35.7089 29.6889 35.5385 29.7687 35.4092 29.8979L30.1063 35.2008C29.977 35.3301 29.8972 35.5005 29.8807 35.6825L29.2914 42.1639C29.2704 42.3949 29.353 42.6232 29.517 42.787L36.293 49.563C36.4454 49.7154 36.6454 49.7918 36.8453 49.7918C37.0452 49.7918 37.2452 49.7155 37.3977 49.563L40.3437 46.617C40.6488 46.3119 40.6488 45.8173 40.3437 45.5123L35.2986 40.4672L40.6751 35.0906L45.7203 40.1357C46.0253 40.4408 46.52 40.4408 46.8249 40.1357L49.7709 37.1897C50.0764 36.8842 50.0764 36.3896 49.7713 36.0846Z" fill="#CDD4D5"/>
<path d="M15.7208 15.4117L14.1973 16.935C14.0507 17.0815 13.9685 17.2802 13.9685 17.4874C13.9685 17.6945 14.0508 17.8933 14.1973 18.0397L32.1685 36.0109C32.3149 36.1574 32.5137 36.2397 32.7208 36.2397C32.9279 36.2397 33.1268 36.1573 33.2731 36.0109L34.7965 34.4874L15.7208 15.4117Z" fill="#687F82"/>
<path d="M12.4801 12.171L9.74147 14.9097L4.69635 9.86455C4.39127 9.55947 3.89664 9.55947 3.59166 9.86455L0.645557 12.8106C0.340478 13.1156 0.340478 13.6103 0.645557 13.9152L7.42155 20.6912C7.56872 20.8384 7.76764 20.92 7.97389 20.92C7.99743 20.92 8.02106 20.919 8.04469 20.9168L14.5261 20.3276C14.7081 20.311 14.8785 20.2312 15.0078 20.102L17.7096 17.4002L12.4801 12.171Z" fill="#9BAAAB"/>
<path d="M30.1063 35.2007C29.977 35.33 29.8972 35.5005 29.8807 35.6824L29.2914 42.1638C29.2704 42.3948 29.353 42.6231 29.517 42.7869L36.293 49.5629C36.4454 49.7153 36.6454 49.7917 36.8453 49.7917C37.0452 49.7917 37.2452 49.7154 37.3977 49.5629L40.3437 46.6169C40.6488 46.3118 40.6488 45.8172 40.3437 45.5122L35.2986 40.467L38.0372 37.7283L32.808 32.4991L30.1063 35.2007Z" fill="#9BAAAB"/>
<path d="M35.5081 14.205L33.1513 11.8481C32.8462 11.543 32.3516 11.543 32.0466 11.8481L16.4323 27.4623C16.1272 27.7674 16.1272 28.262 16.4323 28.5671L18.7891 30.9239C18.9416 31.0763 19.1416 31.1527 19.3415 31.1527C19.5415 31.1527 19.7414 31.0764 19.8938 30.9239L35.508 15.3097C35.8132 15.0046 35.8132 14.51 35.5081 14.205Z" fill="#CDD4D5"/>
<path d="M45.2302 4.48289L42.8733 2.12595C42.6431 1.89568 42.2942 1.8323 41.9977 1.96726L35.5162 4.91346C35.4308 4.95223 35.3533 5.00594 35.2871 5.07215L30.279 10.0805C29.9739 10.3855 29.9739 10.8802 30.279 11.1852L36.1711 17.0773C36.3235 17.2299 36.5235 17.3061 36.7234 17.3061C36.9233 17.3061 37.1233 17.2298 37.2758 17.0773L42.2841 12.0689C42.3503 12.0027 42.4041 11.9251 42.4428 11.8398L45.3888 5.35838C45.5237 5.06199 45.4606 4.71307 45.2302 4.48289Z" fill="#CDD4D5"/>
<path d="M19.5993 35.4167L11.9395 27.7569C11.6344 27.4519 11.1398 27.4519 10.8348 27.7569L1.70195 36.8898C1.39687 37.1948 1.39687 37.6895 1.70195 37.9946L9.36173 45.6543C9.51418 45.8068 9.71418 45.8831 9.91408 45.8831C10.114 45.8831 10.314 45.8069 10.4664 45.6543L19.5993 36.5215C19.9043 36.2164 19.9043 35.7218 19.5993 35.4167Z" fill="#FD6A33"/>
<path d="M11.9395 27.7569C11.6344 27.4519 11.1398 27.4519 10.8348 27.7569L1.70195 36.8898C1.39687 37.1949 1.39687 37.6895 1.70195 37.9946L5.49962 41.7923L15.7372 31.5547L11.9395 27.7569Z" fill="#FF8C29"/>
<path d="M4.97896 41.2718L6.08374 42.3766L16.3212 32.1391L15.2164 31.0344L4.97896 41.2718Z" fill="#365558"/>
<path d="M7.33639 43.0396L8.44116 44.1443L18.3839 34.2016L17.2792 33.0968L7.33639 43.0396Z" fill="#365558"/>
<path d="M3.212 38.9156L4.31677 40.0204L14.2596 30.0776L13.1548 28.9728L3.212 38.9156Z" fill="#687F82"/>
<path d="M5.49963 41.7916L15.7371 31.5541L15.2171 31.0342L4.97966 41.2717L5.49963 41.7916Z" fill="#687F82"/>
<path d="M34.2976 12.9943L17.5786 29.7132L18.7892 30.9238C18.9416 31.0762 19.1416 31.1526 19.3415 31.1526C19.5415 31.1526 19.7414 31.0763 19.8939 30.9238L35.5082 15.3096C35.8132 15.0045 35.8132 14.5099 35.5082 14.2049L34.2976 12.9943Z" fill="#687F82"/>
<path d="M44.0194 3.27228L33.1926 14.0992L36.1709 17.0774C36.3233 17.23 36.5233 17.3062 36.7232 17.3062C36.9231 17.3062 37.1231 17.2299 37.2755 17.0774L42.2839 12.0691C42.3501 12.0029 42.4039 11.9252 42.4425 11.84L45.3886 5.35851C45.5233 5.06203 45.4601 4.7131 45.2299 4.48283L44.0194 3.27228Z" fill="#9BAAAB"/>
<path d="M7.26277 47.3562C7.39236 47.3562 7.52283 47.324 7.64187 47.2578L10.2932 45.7848L1.57116 37.0628L0.0983019 39.7143C-0.0710343 40.0192 -0.0178116 40.3994 0.228771 40.646L6.71023 47.1274C6.86052 47.2778 7.06052 47.3562 7.26277 47.3562Z" fill="#FF8C29"/>
<path d="M1.57135 37.0628L0.0983019 39.7143C-0.0710343 40.0192 -0.0178116 40.3994 0.228771 40.646L3.43727 43.8545L5.90017 41.3916L1.57135 37.0628Z" fill="#FFD1A9"/>
<path d="M16.064 25.9893C15.8382 25.7636 15.4976 25.6979 15.2039 25.8237L11.0793 27.5914L19.7649 36.2769L21.5326 32.1524C21.6584 31.8588 21.5928 31.5182 21.367 31.2923L16.064 25.9893Z" fill="#FF8C29"/>
<path d="M16.064 25.9893C15.8382 25.7636 15.4976 25.6979 15.2039 25.8237L11.0793 27.5914L15.39 31.902L18.6833 28.6088L16.064 25.9893Z" fill="#FFD1A9"/>
<path d="M34.5288 11.4609C34.3289 11.4609 34.1289 11.3846 33.9765 11.2321C33.6714 10.927 33.6714 10.4324 33.9765 10.1274L36.4763 7.62761C36.7814 7.32253 37.276 7.32253 37.581 7.62761C37.8861 7.93269 37.8861 8.42732 37.581 8.7323L35.0812 11.2321C34.9286 11.3845 34.7288 11.4609 34.5288 11.4609Z" fill="white"/>
</g>
<defs>
<clipPath id="clip0">
<rect width="50" height="50" fill="white"/>
</clipPath>
</defs>
</svg>
