<svg width="300" height="324" viewBox="0 0 300 324" fill="none" xmlns="http://www.w3.org/2000/svg">
<rect width="300" height="36" fill="white"/>
<rect width="36" height="54" fill="white"/>
<rect x="264" width="36" height="54" fill="white"/>
<rect x="132" width="36" height="171" fill="white"/>
<rect x="18" y="102" width="36" height="171" fill="white"/>
<rect x="246" y="102" width="36" height="171" fill="white"/>
<rect x="132" y="216" width="36" height="102" fill="white"/>
<rect x="114" y="288" width="72" height="36" fill="white"/>
<path fill-rule="evenodd" clip-rule="evenodd" d="M168 193.5L150 216H168L168 193.5Z" fill="white"/>
<path fill-rule="evenodd" clip-rule="evenodd" d="M132 193.5L150 216H132L132 193.5Z" fill="white"/>
<rect y="66" width="54" height="36" fill="white"/>
<rect x="246" y="66" width="54" height="36" fill="white"/>
<rect x="228" y="252" width="72" height="36" fill="white"/>
<rect y="252" width="72" height="36" fill="white"/>
<path fill-rule="evenodd" clip-rule="evenodd" d="M54 66L151.5 162L150 199.5L54 115.5V66Z" fill="white"/>
<path fill-rule="evenodd" clip-rule="evenodd" d="M246 66L148.5 162L150 199.5L246 115.5V66Z" fill="white"/>
<rect width="300" height="36" fill="white"/>
<rect width="36" height="54" fill="white"/>
<rect x="264" width="36" height="54" fill="white"/>
<rect x="132" width="36" height="171" fill="white"/>
<rect x="18" y="102" width="36" height="171" fill="white"/>
<rect x="246" y="102" width="36" height="171" fill="white"/>
<rect x="132" y="216" width="36" height="102" fill="white"/>
<rect x="114" y="288" width="72" height="36" fill="white"/>
<path fill-rule="evenodd" clip-rule="evenodd" d="M168 193.5L150 216H168L168 193.5Z" fill="white"/>
<path fill-rule="evenodd" clip-rule="evenodd" d="M132 193.5L150 216H132L132 193.5Z" fill="white"/>
<rect y="66" width="54" height="36" fill="white"/>
<rect x="246" y="66" width="54" height="36" fill="white"/>
<rect x="228" y="252" width="72" height="36" fill="white"/>
<rect y="252" width="72" height="36" fill="white"/>
<path fill-rule="evenodd" clip-rule="evenodd" d="M54 66L151.5 162L150 199.5L54 115.5V66Z" fill="white"/>
<path fill-rule="evenodd" clip-rule="evenodd" d="M246 66L148.5 162L150 199.5L246 115.5V66Z" fill="white"/>
</svg>
